<?xml version="1.0" standalone="no"?>
  <!DOCTYPE svg PUBLIC "-//W3C//DTD SVG 1.1//EN" "http://www.w3.org/Graphics/SVG/1.1/DTD/svg11.dtd" >
  <svg>
  <metadata>
  Created by font-carrier
  </metadata>
  <defs>
  <font id="Stradivariscript" horiz-adv-x="1466" vert-adv-y="1466" >
    <font-face
      
      font-family="Stradivari script"
      
      font-weight="400"
      
      font-stretch="normal"
      
      units-per-em="1000"
      
      ascent="950"
      
      descent="-350"
      
    />
      <missing-glyph />

      

      
      <glyph glyph-name="uni21" unicode="&#x21;" d="M198 567Q198 558 196 550.50Q194 543 191 532L84 165Q76 140 73.50 131Q71 122 67 122Q59 122 59 135Q59 140 60 146.50Q61 153 63 165L133 544Q138 571 149 585.50Q160 600 173 600Q187 600 192.50 590.50Q198 581 198 567M76 29Q76 16 67.50 7.50Q59-1 46-1Q33-1 24.50 7.50Q16 16 16 29Q16 42 24.50 51Q33 60 46 60Q59 60 67.50 51Q76 42 76 29Z"  horiz-adv-x="174" vert-adv-y="1000"  />

      
      <glyph glyph-name="uni24" unicode="&#x24;" d="M400 477Q400 442 385.50 423.50Q371 405 350 405Q336 405 324.50 414Q313 423 313 434Q313 442 320 452Q327 462 342 462Q348 462 354 457.50Q360 453 362 451Q364 449 367 446.50Q370 444 372 444Q377 444 380.50 454Q384 464 384 478Q384 502 365 520.50Q346 539 317 546L263 343L305 309Q350 273 368.50 243.50Q387 214 387 181Q387 145 370 117.50Q353 90 324 70.50Q295 51 257.50 40.50Q220 30 180 29L150-83Q146-99 139-99Q132-99 132-90Q132-88 135-76L163 29Q127 29 96 39.50Q65 50 41.50 68Q18 86 5 110Q-8 134-8 161Q-8 191 4.50 214Q17 237 38.50 253Q60 269 87.50 277.50Q115 286 145 286Q171 286 191 282Q211 278 227 270L242 329L206 362Q184 382 170.50 404.50Q157 427 157 460Q157 478 166 496.50Q175 515 192.50 530Q210 545 234.50 555Q259 565 290 565Q294 565 297 564.50Q300 564 304 564L319 619Q322 629 323.50 632Q325 635 330 635Q337 635 337 627Q337 626 335 616L321 562Q358 554 379 529.50Q400 505 400 477M300 548Q297 548 294 548.50Q291 549 288 549Q266 549 245.50 541.50Q225 534 209 521Q193 508 183.50 492Q174 476 174 460Q174 432 186 413Q198 394 226 372L249 354L300 548L300 548M327 184Q327 222 315 247.50Q303 273 281 293L256 316L241 262Q262 248 271.50 231Q281 214 281 198Q281 166 257.50 146.50Q234 127 203 119L184 47Q217 50 243 63.50Q269 77 288 96.50Q307 116 317 139Q327 162 327 184M264 199Q264 224 237 245L208 137Q233 145 248.50 161Q264 177 264 199M222 254Q190 270 146 270Q114 270 88.50 259.50Q63 249 45.50 233Q28 217 18.50 198Q9 179 9 161Q9 140 20 119.50Q31 99 51.50 82.50Q72 66 101 56Q130 46 166 46L167 46L186 116Q182 115 178 115Q174 115 170 115Q152 115 135.50 120.50Q119 126 105.50 134Q92 142 84 149.50Q76 157 76 162Q76 171 82 171Q88 171 98 161Q112 147 131.50 139Q151 131 168 131Q174 131 179.50 131.50Q185 132 190 133L222 254L222 254Z"  horiz-adv-x="430" vert-adv-y="1000"  />

      
      <glyph glyph-name="uni25" unicode="&#x25;" d="M537 213Q537 183 528 145.50Q519 108 502 74Q485 40 461 17Q437-6 407-6Q365-6 340.50 23Q316 52 316 92Q316 132 325.50 169.50Q335 207 354.50 235.50Q374 264 402.50 281.50Q431 299 469 299Q496 299 516.50 274.50Q537 250 537 213M502 593Q502 590 500 586.50Q498 583 496 579L88-29Q81-40 75-40Q68-40 68-32Q68-30 76-17L433 516Q412 496 377 480.50Q342 465 304 465Q281 465 264 469Q259 439 248 407.50Q237 376 220.50 350Q204 324 183 307.50Q162 291 137 291Q95 291 70.50 320Q46 349 46 389Q46 428 55.50 465.50Q65 503 84 532Q103 561 131.50 578.50Q160 596 199 596Q229 596 248 571.50Q267 547 267 510Q267 504 266.50 497Q266 490 265 483Q275 481 285 480.50Q295 480 306 480Q330 480 355.50 488.50Q381 497 404 512Q427 527 447.50 546.50Q468 566 482 588Q489 600 497 600Q502 600 502 593M252 512Q252 535 240.50 556Q229 577 207 582Q203 576 201 567.50Q199 559 199 553Q199 527 213 512Q227 497 250 487Q252 495 252 501Q252 507 252 512M247 472Q212 483 197.50 506.50Q183 530 183 553Q183 559 185 568Q187 577 191 582Q161 578 141.50 550Q122 522 110 486Q98 450 93.50 415.50Q89 381 89 364Q89 304 140 304Q159 304 176 321Q193 338 207 363.50Q221 389 231 418.50Q241 448 247 472M523 215Q523 227 518.50 240Q514 253 506.50 263Q499 273 489 279.50Q479 286 468 286Q438 286 417 258.50Q396 231 383 194Q370 157 364.50 121Q359 85 359 67Q359 7 410 7Q426 7 440.50 19.50Q455 32 467.50 51.50Q480 71 490.50 95Q501 119 508 142.50Q515 166 519 185Q523 204 523 215Z"  horiz-adv-x="572" vert-adv-y="1000"  />

      
      <glyph glyph-name="uni26" unicode="&#x26;" d="M649 409Q649 399 646 376Q643 353 633 330Q623 307 605.50 289Q588 271 558 271L460 271Q454 226 442 176Q430 126 404 85Q378 44 334.50 17Q291-10 224-10Q192-10 160 1Q128 12 102.50 33Q77 54 61 86Q45 118 45 160Q45 188 54 217.50Q63 247 79.50 272.50Q96 298 119 316.50Q142 335 170 341Q137 352 115.50 381.50Q94 411 94 460Q94 512 112 555.50Q130 599 162.50 630.50Q195 662 239 679Q283 696 336 696Q408 696 450 663Q492 630 492 562Q492 522 481.50 492.50Q471 463 454 443.50Q437 424 415.50 414Q394 404 372 404Q353 404 353 412Q353 420 372 420Q393 420 412 430.50Q431 441 445 459.50Q459 478 467 503.50Q475 529 475 560Q475 601 446 627.50Q417 654 352 654Q290 654 244.50 634.50Q199 615 170 585Q141 555 127 519.50Q113 484 113 452Q113 426 121 407Q129 388 142.50 375.50Q156 363 173.50 356.50Q191 350 210 350Q219 350 224.50 349.50Q230 349 230 344Q230 339 227.50 336.50Q225 334 214 334Q182 334 154 319.50Q126 305 105.50 280.50Q85 256 73.50 224Q62 192 62 158Q62 120 77.50 91.50Q93 63 116.50 44Q140 25 168.50 15.50Q197 6 224 6Q321 6 375 74Q429 142 443 271L312 271Q299 271 294.50 273Q290 275 290 282Q290 284 290 286.50Q290 289 291 293Q292 297 293 302Q298 330 301.50 336.50Q305 343 315 343L569 343Q601 343 615 358Q629 373 635 407Q638 421 642 421Q649 421 649 409Z"  horiz-adv-x="639" vert-adv-y="1000"  />

      
      <glyph glyph-name="uni28" unicode="&#x28;" d="M113 154Q113 299 134.50 404Q156 509 183 576.50Q210 644 235 676Q260 708 268 708Q275 708 275 696Q275 691 271 684.50Q267 678 260 668Q196 574 166 442.50Q136 311 136 158Q136 143 136 122.50Q136 102 136.50 81.50Q137 61 137.50 45Q138 29 139 24Q141 13 141 1Q141-11 141-18Q141-34 128-34Q124-34 121-28.50Q118-23 116.50-3.50Q115 16 114 53Q113 90 113 154Z"  horiz-adv-x="297" vert-adv-y="1000"  />

      
      <glyph glyph-name="uni29" unicode="&#x29;" d="M214 520Q214 374 192.50 269.50Q171 165 144 97.50Q117 30 91.50-2Q66-34 59-34Q52-34 52-22Q52-17 56-10.50Q60-4 67 6Q131 100 161 231.50Q191 363 191 516Q191 531 191 551.50Q191 572 190.50 592.50Q190 613 189.50 629Q189 645 188 650Q186 661 186 673Q186 685 186 692Q186 708 199 708Q203 708 206 702.50Q209 697 210.50 677.50Q212 658 213 621Q214 584 214 520Z"  horiz-adv-x="297" vert-adv-y="1000"  />

      
      <glyph glyph-name="uni2c" unicode="&#x2c;" d="M39 47Q39 42 38.50 38.50Q38 35 37 30L13-81Q10-98 1-98Q-5-98-7.50-94Q-10-90-10-85Q-10-80-9.50-76.50Q-9-73-8-68L16 43Q19 60 29 60Q35 60 37 56Q39 52 39 47Z"  horiz-adv-x="129" vert-adv-y="1000"  />

      
      <glyph glyph-name="uni2d" unicode="&#x2d;" d="M166 139Q166 132 161.50 126.50Q157 121 145 121L32 121Q14 121 14 132Q14 139 19 144Q24 149 35 149L148 149Q166 149 166 139Z"  horiz-adv-x="170" vert-adv-y="1000"  />

      
      <glyph glyph-name="uni2e" unicode="&#x2e;" d="M54 29Q54 16 45.50 7.50Q37-1 24-1Q11-1 2.50 7.50Q-6 16-6 29Q-6 42 2.50 51Q11 60 24 60Q37 60 45.50 51Q54 42 54 29Z"  horiz-adv-x="129" vert-adv-y="1000"  />

      
      <glyph glyph-name="uni2f" unicode="&#x2f;" d="M417 690Q417 688 415 684Q413 680 411 676L9-17Q2-30-4-30Q-7-30-9-27Q-11-24-11-21Q-11-19-6-9L397 685Q404 697 412 697Q417 697 417 690Z"  horiz-adv-x="206" vert-adv-y="1000"  />

      
      <glyph glyph-name="uni30" unicode="&#x30;" d="M424 437Q424 402 417 355.50Q410 309 396.50 259.50Q383 210 363 161.50Q343 113 316.50 75Q290 37 257.50 13.50Q225-10 186-10Q156-10 128 2.50Q100 15 78.50 38Q57 61 43.50 93.50Q30 126 30 165Q30 214 37.50 265.50Q45 317 60 365.50Q75 414 97 456.50Q119 499 147.50 531Q176 563 212 581.50Q248 600 290 600Q322 600 347 586.50Q372 573 389 550.50Q406 528 415 498.50Q424 469 424 437M406 441Q406 458 400.50 482.50Q395 507 382 529.50Q369 552 346.50 568Q324 584 290 584Q254 584 224 553.50Q194 523 170.50 476Q147 429 129.50 373Q112 317 100.50 265Q89 213 83.50 173Q78 133 78 119Q78 101 82.50 81Q87 61 99.50 44.50Q112 28 133.50 17Q155 6 188 6Q222 6 251.50 34.50Q281 63 305 106.50Q329 150 348 202.50Q367 255 380 303Q393 351 399.50 389Q406 427 406 441Z"  horiz-adv-x="440" vert-adv-y="1000"  />

      
      <glyph glyph-name="uni31" unicode="&#x31;" d="M271 593Q271 590 270 582.50Q269 575 267 564L133 0L62 0L200 451Q170 393 131 338.50Q92 284 49 234Q42 226 39 224Q36 222 31 221Q24 218 24 228Q24 231 25.50 234.50Q27 238 35 246Q104 318 157.50 408Q211 498 243 588Q246 596 249 601Q252 606 258 606Q271 606 271 593Z"  horiz-adv-x="300" vert-adv-y="1000"  />

      
      <glyph glyph-name="uni32" unicode="&#x32;" d="M424 459Q424 418 407 378Q390 338 362.50 301Q335 264 300.50 229.50Q266 195 230.50 165.50Q195 136 162.50 111.50Q130 87 107 69Q117 70 131.50 69.50Q146 69 162.50 66Q179 63 195.50 58Q212 53 226 45Q264 23 275 23Q288 23 300 32.50Q312 42 322 58Q332 74 339 94.50Q346 115 350 137Q352 148 353.50 155Q355 162 359 162Q363 162 364.50 160Q366 158 366 150Q366 139 360 113Q354 87 340 59.50Q326 32 301.50 11Q277-10 241-10Q218-10 198 0.50Q178 11 166 23Q150 40 138 48.50Q126 57 112 57Q101 57 92.50 54Q84 51 73 42Q59 30 40 15.50Q21 1 2-12Q-17-25-34-33.50Q-51-42-60-42Q-75-42-75-31Q-75-25-65.50-15Q-56-5-40.50 6Q-25 17-5 27.50Q15 38 36 46Q64 57 83 69Q102 81 128 101Q177 138 220.50 183Q264 228 296.50 278.50Q329 329 348 383Q367 437 367 491Q367 531 344 559Q321 587 279 587Q247 587 216 575.50Q185 564 161 541Q137 518 122 483.50Q107 449 107 403Q107 371 116.50 336Q126 301 155 268Q163 259 163 254.50Q163 250 160 250Q154 250 142 262.50Q130 275 119 296Q108 317 99.50 344Q91 371 91 400Q91 440 103.50 476Q116 512 140 539.50Q164 567 199.50 583.50Q235 600 282 600Q325 600 352.50 585.50Q380 571 396 549.50Q412 528 418 503.50Q424 479 424 459Z"  horiz-adv-x="433" vert-adv-y="1000"  />

      
      <glyph glyph-name="uni33" unicode="&#x33;" d="M412 493Q412 460 397 430Q382 400 360.50 375Q339 350 315.50 331.50Q292 313 275 304Q324 281 341.50 250Q359 219 359 175Q359 146 345 113.50Q331 81 303 53.50Q275 26 233.50 8Q192-10 137-10Q100-10 73 0.50Q46 11 28.50 28Q11 45 2.50 66Q-6 87-6 109Q-6 128-1.50 146Q3 164 10.50 177.50Q18 191 29 199Q40 207 54 207Q74 207 82.50 195.50Q91 184 91 175Q91 163 83 152.50Q75 142 61 142Q44 142 33 156Q30 161 26 161Q19 161 15 145.50Q11 130 11 113Q11 98 17.50 79Q24 60 39 43.50Q54 27 77.50 16Q101 5 134 5Q174 5 206 25Q238 45 260 76Q282 107 293.50 144Q305 181 305 216Q305 241 297.50 261Q290 281 266 299Q256 293 240.50 286Q225 279 208.50 273Q192 267 177 262.50Q162 258 152 258Q142 258 133.50 261.50Q125 265 125 274Q125 286 144 299Q163 312 203 312Q211 312 216.50 312Q222 312 228.50 312Q235 312 243.50 311.50Q252 311 266 310Q286 325 304.50 346Q323 367 337.50 391Q352 415 360 441.50Q368 468 368 496Q368 513 364 529Q360 545 351 557Q342 569 326 576.50Q310 584 286 584Q259 584 235.50 575Q212 566 194.50 549Q177 532 166.50 508.50Q156 485 156 456Q156 436 160.50 414Q165 392 179 372Q182 366 182 362Q182 354 177 354Q174 354 168 360.50Q162 367 155.50 379.50Q149 392 144.50 411Q140 430 140 456Q140 486 150.50 512Q161 538 180 557.50Q199 577 226 588.50Q253 600 286 600Q340 600 376 572Q412 544 412 493Z"  horiz-adv-x="416" vert-adv-y="1000"  />

      
      <glyph glyph-name="uni34" unicode="&#x34;" d="M427 95Q427 88 420 88Q415 88 409 90Q386 95 360 99Q334 103 308 105L282 0L206-5Q215 21 223 44Q230 64 236 82.50Q242 101 244 109Q186 112 116 110Q46 108-29 101Q-43 100-43 109Q-43 113-36 117.50Q-29 122-22 127Q40 176 85 223.50Q130 271 166 325Q202 379 233 444.50Q264 510 297 596L361 596Q338 540 302.50 477.50Q267 415 220.50 352Q174 289 117 229.50Q60 170-5 120Q46 125 115 127.50Q184 130 250 127L354 431Q358 442 361 446.50Q364 451 371 451Q378 451 380.50 447Q383 443 383 438Q383 434 382 426.50Q381 419 378 408L312 122Q342 119 369.50 114.50Q397 110 414 105Q427 102 427 95Z"  horiz-adv-x="450" vert-adv-y="1000"  />

      
      <glyph glyph-name="uni35" unicode="&#x35;" d="M397 610Q397 607 386.50 595.50Q376 584 349.50 571.50Q323 559 278.50 548.50Q234 538 166 538L125 368Q142 380 167.50 387Q193 394 210 394Q255 394 285.50 378.50Q316 363 335 340.50Q354 318 362 292Q370 266 370 245Q370 177 349 128.50Q328 80 295.50 49Q263 18 225 4Q187-10 154-10Q117-10 91 1.50Q65 13 48.50 31.50Q32 50 24 73Q16 96 16 119Q16 157 31 185Q46 213 73 213Q93 213 100.50 200.50Q108 188 108 179Q108 165 99.50 154.50Q91 144 80 144Q62 144 52 157Q49 162 45 162Q39 162 35.50 149Q32 136 32 119Q32 102 38 82.50Q44 63 58 46Q72 29 94.50 17.50Q117 6 151 6Q195 6 225.50 31.50Q256 57 274.50 96Q293 135 301.50 182Q310 229 310 271Q310 317 282 347Q254 377 203 377Q183 377 164 371.50Q145 366 125 352Q121 350 118.50 348Q116 346 114 346Q108 346 108 353Q108 357 109 361.50Q110 366 112 374L162 583Q164 594 166 597Q168 600 173 600Q175 600 177.50 599Q180 598 182 597Q196 593 221.50 590.50Q247 588 261 588Q272 588 289 589Q306 590 324 592.50Q342 595 358.50 599.50Q375 604 384 611Q390 615 392 615Q397 615 397 610Z"  horiz-adv-x="416" vert-adv-y="1000"  />

      
      <glyph glyph-name="uni36" unicode="&#x36;" d="M376 251Q376 214 363 168.50Q350 123 325 83.50Q300 44 262 17Q224-10 175-10Q149-10 123 1.50Q97 13 76.50 38Q56 63 43 100.50Q30 138 30 191Q30 249 47 304.50Q64 360 90 410Q116 460 147 502Q178 544 205 575Q232 606 251.50 623Q271 640 274 640Q282 640 282 633Q282 629 274 621Q236 580 201.50 522.50Q167 465 141.50 401Q116 337 101 272.50Q86 208 86 153Q86 79 110.50 42.50Q135 6 179 6Q219 6 251 34.50Q283 63 305 104Q327 145 338.50 191.50Q350 238 350 274Q350 315 330 337Q310 359 281 359Q248 359 224.50 337Q201 315 186 282.50Q171 250 164 213.50Q157 177 157 149Q157 127 149 127Q141 127 141 147Q141 198 152 240Q163 282 182 312Q201 342 226.50 358.50Q252 375 281 375Q297 375 314 367.50Q331 360 345 344.50Q359 329 367.50 305.50Q376 282 376 251Z"  horiz-adv-x="408" vert-adv-y="1000"  />

      
      <glyph glyph-name="uni37" unicode="&#x37;" d="M400 585Q400 554 393 512.50Q386 471 367.50 424.50Q349 378 317 329.50Q285 281 235 236Q180 186 147 126Q114 66 103 0L30 0Q39 46 53.50 83.50Q68 121 89.50 154Q111 187 140.50 217Q170 247 211 277Q254 309 284.50 341Q315 373 334.50 406Q354 439 365.50 473.50Q377 508 383 547Q344 515 316 501Q288 487 266 487Q255 487 245.50 489.50Q236 492 226.50 499Q217 506 207.50 518.50Q198 531 186 552Q182 559 174 563.50Q166 568 153 568Q136 568 123 553.50Q110 539 101 518.50Q92 498 86.50 477Q81 456 79 443Q77 428 75 421Q73 414 68 414Q63 414 62.50 418.50Q62 423 62 431Q62 435 64 449Q66 463 71.50 481.50Q77 500 85.50 521Q94 542 106.50 559.50Q119 577 136 588.50Q153 600 176 600Q189 600 218 587Q247 574 282 551Q290 546 301.50 543.50Q313 541 320 541Q337 541 352.50 553Q368 565 379 585Q384 595 385 599Q386 603 393 603Q398 603 399 597Q400 591 400 585Z"  horiz-adv-x="382" vert-adv-y="1000"  />

      
      <glyph glyph-name="uni38" unicode="&#x38;" d="M384 450Q384 424 374 398Q364 372 345.50 349.50Q327 327 301.50 308.50Q276 290 245 279Q289 251 308.50 214.50Q328 178 328 148Q328 116 317.50 87.50Q307 59 285 37Q263 15 230.50 2.50Q198-10 155-10Q129-10 104.50-2.50Q80 5 61 21Q42 37 30.50 60.50Q19 84 19 116Q19 156 34.50 184.50Q50 213 75 233Q100 253 132 265.50Q164 278 197 286Q153 323 128.50 360Q104 397 104 450Q104 487 116.50 516.50Q129 546 150.50 565.50Q172 585 199.50 595.50Q227 606 257 606Q275 606 275 600Q275 594 269 592.50Q263 591 255 591Q222 591 197 578Q172 565 155 544.50Q138 524 129.50 499.50Q121 475 121 452Q121 399 151 360.50Q181 322 231 289Q261 300 286 317.50Q311 335 329 356.50Q347 378 357 402Q367 426 367 450Q367 474 358 490.50Q349 507 336.50 517Q324 527 309.50 531.50Q295 536 284 536Q267 536 245 531Q223 526 208 517Q205 515 201.50 513.50Q198 512 195 512Q191 512 189 515Q187 518 187 521Q187 525 195 530.50Q203 536 217 541Q231 546 248.50 549Q266 552 286 552Q303 552 320.50 546.50Q338 541 352 528.50Q366 516 375 496.50Q384 477 384 450M266 147Q266 182 251.50 210.50Q237 239 208 272Q123 255 79.50 213Q36 171 36 114Q36 93 43.50 74Q51 55 65.50 40.50Q80 26 102 17.50Q124 9 153 9Q201 9 233.50 43.50Q266 78 266 147Z"  horiz-adv-x="389" vert-adv-y="1000"  />

      
      <glyph glyph-name="uni39" unicode="&#x39;" d="M393 446Q393 378 374.50 316.50Q356 255 325.50 202.50Q295 150 256.50 107.50Q218 65 178.50 35.50Q139 6 101.50-10Q64-26 36-26Q19-26 19-18Q19-13 34-10Q74-2 112 23Q150 48 182.50 82.50Q215 117 240.50 156.50Q266 196 283 234Q261 208 233 193.50Q205 179 164 179Q145 179 125 188Q105 197 89 215Q73 233 63 259.50Q53 286 53 321Q53 361 68.50 409.50Q84 458 111.50 500.50Q139 543 178.50 571.50Q218 600 266 600Q323 600 358 561Q393 522 393 446M360 488Q360 507 354.50 524.50Q349 542 339 555Q329 568 316.50 576Q304 584 289 584Q258 584 232 565Q206 546 185 517Q164 488 148 452.50Q132 417 121.50 383Q111 349 106 321.50Q101 294 101 281Q101 257 107.50 240.50Q114 224 125 214.50Q136 205 150 201Q164 197 179 197Q220 197 253.50 226.50Q287 256 310.50 300Q334 344 347 395Q360 446 360 488Z"  horiz-adv-x="408" vert-adv-y="1000"  />

      
      <glyph glyph-name="uni3a" unicode="&#x3a;" d="M99 183Q99 170 90.50 161.50Q82 153 69 153Q56 153 47.50 161.50Q39 170 39 183Q39 196 47.50 205Q56 214 69 214Q82 214 90.50 205Q99 196 99 183M64 29Q64 16 55.50 7.50Q47-1 34-1Q21-1 12.50 7.50Q4 16 4 29Q4 42 12.50 51Q21 60 34 60Q47 60 55.50 51Q64 42 64 29Z"  horiz-adv-x="159" vert-adv-y="1000"  />

      
      <glyph glyph-name="uni3b" unicode="&#x3b;" d="M99 183Q99 170 90.50 161.50Q82 153 69 153Q56 153 47.50 161.50Q39 170 39 183Q39 196 47.50 205Q56 214 69 214Q82 214 90.50 205Q99 196 99 183M56 47Q56 42 55.50 38.50Q55 35 54 30L30-81Q27-98 18-98Q12-98 9.50-94Q7-90 7-85Q7-80 7.50-76.50Q8-73 9-68L33 43Q36 60 46 60Q52 60 54 56Q56 52 56 47Z"  horiz-adv-x="159" vert-adv-y="1000"  />

      
      <glyph glyph-name="uni3f" unicode="&#x3f;" d="M304 498Q304 450 284 414Q264 378 232 354L128 276Q96 252 88 236Q80 220 80 206Q80 184 83.50 172Q87 160 95 143Q96 141 98.50 137Q101 133 101 130Q101 122 92 122Q89 122 83.50 131Q78 140 72 155Q66 170 61.50 188Q57 206 57 224Q57 251 70 273Q83 295 111 317L216 398Q249 424 267 450.50Q285 477 285 506Q285 548 261.50 566.50Q238 585 206 585Q175 585 151 572Q127 559 110.50 537Q94 515 85 486Q76 457 76 426Q76 420 74.50 414Q73 408 68 408Q60 408 60 426Q60 464 71 496Q82 528 101.50 551Q121 574 147.50 587Q174 600 204 600Q257 600 280.50 571.50Q304 543 304 498M136 29Q136 16 127.50 7.50Q119-1 106-1Q93-1 84.50 7.50Q76 16 76 29Q76 42 84.50 51Q93 60 106 60Q119 60 127.50 51Q136 42 136 29Z"  horiz-adv-x="255" vert-adv-y="1000"  />

      
      <glyph glyph-name="uni41" unicode="&#x41;" d="M847 89Q847 79 842.50 53Q838 27 827-0.50Q816-28 796.50-49.50Q777-71 747-71Q724-71 704-53.50Q684-36 684-3Q684 3 684 10.50Q684 18 686.50 32Q689 46 694 69.50Q699 93 709 132L732 225L622 225L593 115Q582 73 566 33Q550-7 522-38.50Q494-70 452-89Q410-108 347-108Q279-108 221-85.50Q163-63 120.50-23Q78 17 54 71.50Q30 126 30 191Q30 249 52 295.50Q74 342 110 375Q146 408 192 425.50Q238 443 286 443Q327 443 364 429Q401 415 430.50 390.50Q460 366 479 332.50Q498 299 502 261L614 261L685 532Q695 569 703.50 596.50Q712 624 723 642Q734 660 749.50 669Q765 678 789 678Q821 678 832 659Q843 640 843 620Q843 600 838 573Q833 546 825 516L758 261L816 261Q834 261 834 247Q834 235 827 230Q820 225 812 225L749 225L729 147Q720 112 715.50 83Q711 54 713.50 33.50Q716 13 727 2Q738-9 760-9Q779-9 793 2.50Q807 14 815.50 30Q824 46 828 62.50Q832 79 832 89Q832 102 840 102Q845 102 846 98Q847 94 847 89M818 574Q818 588 807.50 601.50Q797 615 774 615Q745 615 730 592Q715 569 700 514L632 261L741 261L807 512Q813 536 815.50 550.50Q818 565 818 574M501 225Q501 118 453.50 55.50Q406-7 320-7Q282-7 256 6Q230 19 213.50 39Q197 59 189.50 82.50Q182 106 182 127Q182 155 192 179.50Q202 204 221 222Q240 240 266.50 250.50Q293 261 326 261L465 261Q459 283 446.50 302Q434 321 415 335Q396 349 369 357Q342 365 307 365Q255 365 214 347.50Q173 330 145 299.50Q117 269 102 226.50Q87 184 87 134Q87 92 104 51Q121 10 154-21.50Q187-53 235.50-72.50Q284-92 347-92Q389-92 420.50-81.50Q452-71 476-53.50Q500-36 516.50-13.50Q533 9 544.50 32.50Q556 56 563.50 79Q571 102 576 120L604 225L501 225M472 206Q472 212 471.50 215.50Q471 219 470 225L350 225Q270 225 235.50 200.50Q201 176 201 122Q201 102 209.50 82Q218 62 233.50 45.50Q249 29 270.50 19Q292 9 319 9Q356 9 384.50 23.50Q413 38 432.50 64.50Q452 91 462 127Q472 163 472 206Z"  horiz-adv-x="900" vert-adv-y="1000"  />

      
      <glyph glyph-name="uni42" unicode="&#x42;" d="M807 103Q807 92 805.50 72.50Q804 53 797 29.50Q790 6 776.50-18.50Q763-43 739-63Q715-83 679-95.50Q643-108 592-108Q557-108 523.50-100Q490-92 458.50-78.50Q427-65 396.50-48.50Q366-32 336-14Q298-30 258-38.50Q218-47 176-47Q127-47 95-38.50Q63-30 44.50-17Q26-4 19 10.50Q12 25 12 36Q12 50 18.50 66.50Q25 83 40.50 97Q56 111 81.50 120.50Q107 130 144 130Q214 130 277 101.50Q340 73 399 37Q437 63 465.50 95.50Q494 128 513 160Q489 160 469 177Q449 194 448 219Q448 232 454.50 247Q461 262 475.50 274.50Q490 287 513.50 294.50Q537 302 570 301Q591 370 606 447Q616 495 633 534.50Q650 574 678 597Q652 619 614.50 634Q577 649 532 649Q524 649 517.50 649Q511 649 504 648Q535 605 535 537Q535 495 517.50 451Q500 407 469.50 370Q439 333 398.50 309.50Q358 286 312 286Q278 286 255.50 298.50Q233 311 220 330Q207 349 201.50 370Q196 391 196 409Q196 451 214 492Q232 533 267 567.50Q302 602 353.50 626.50Q405 651 472 660Q452 676 424 683Q396 690 364 690Q311 690 262.50 670.50Q214 651 177.50 614Q141 577 119 525Q97 473 97 409Q97 364 115.50 317Q134 270 166 236Q169 232 171 229.50Q173 227 173 224Q173 214 168 214Q162 214 147.50 229Q133 244 118 270Q103 296 91.50 331.50Q80 367 80 409Q80 473 102 527.50Q124 582 163 621.50Q202 661 254.50 683.50Q307 706 368 706Q410 706 442 694.50Q474 683 494 663Q506 664 516.50 664.50Q527 665 540 665Q587 665 626 646.50Q665 628 691 608Q697 614 709.50 621.50Q722 629 735.50 635.50Q749 642 761.50 647Q774 652 781 652Q791 652 791 646Q791 640 783 637Q762 629 742.50 619.50Q723 610 705 596Q737 567 759.50 522Q782 477 782 423Q782 398 779.50 377.50Q777 357 770.50 338Q764 319 753.50 299.50Q743 280 727 258Q745 245 759.50 227Q774 209 784.50 188.50Q795 168 801 146Q807 124 807 103M744 436Q744 477 729.50 517Q715 557 692 585Q679 573 669 560.50Q659 548 650.50 532Q642 516 635.50 494.50Q629 473 623 445Q615 407 607 371.50Q599 336 589 302Q602 302 617.50 299.50Q633 297 647.50 293Q662 289 674 284Q686 279 694 274Q720 316 732 354.50Q744 393 744 436M683 261Q660 274 635.50 279.50Q611 285 585 286Q582 275 577.50 261Q573 247 567 231.50Q561 216 554.50 201Q548 186 542 175Q584 175 621.50 200Q659 225 683 261M508 577Q508 619 486 646Q428 640 378.50 620Q329 600 292.50 568Q256 536 235 493.50Q214 451 214 399Q214 374 223 355.50Q232 337 246.50 325Q261 313 278 307.50Q295 302 310 302Q338 302 363.50 315Q389 328 411 349.50Q433 371 451 399Q469 427 481.50 457.50Q494 488 501 519Q508 550 508 577M567 286Q513 286 488.50 263.50Q464 241 464 216Q464 202 481.50 188.50Q499 175 522 175Q537 206 549 234.50Q561 263 567 286M790 100Q790 120 783.50 141Q777 162 766.50 181.50Q756 201 743 217.50Q730 234 716 245Q700 227 678.50 211Q657 195 632.50 183.50Q608 172 582 165.50Q556 159 532 159Q515 122 485.50 90Q456 58 414 28Q445 8 474.50-10.50Q504-29 532-44Q560-59 587-68Q614-77 640-77Q674-77 702-62Q730-47 749.50-22.50Q769 2 779.50 34Q790 66 790 100M320-5Q293 11 265.50 25.50Q238 40 209.50 51.50Q181 63 152 70Q123 77 92 77Q57 77 44 63.50Q31 50 31 38Q31 27 39.50 15Q48 3 66-7Q84-17 112-24Q140-31 178-31Q253-31 320-5Z"  horiz-adv-x="869" vert-adv-y="1000"  />

      
      <glyph glyph-name="uni43" unicode="&#x43;" d="M693 583Q693 517 661 468Q629 419 578 384Q610 358 627.50 317Q645 276 645 216Q645 156 626 97.50Q607 39 569.50-6.50Q532-52 476-80Q420-108 347-108Q306-108 260-91.50Q214-75 175-36Q136 3 110.50 66.50Q85 130 85 225Q85 245 87 265.50Q89 286 93 306Q53 322 29.50 350.50Q6 379 6 424Q6 469 28.50 500Q51 531 87.50 550Q124 569 171 578Q218 587 268 587Q335 643 405.50 674.50Q476 706 557 706Q592 706 618 693.50Q644 681 660.50 662Q677 643 685 622Q693 601 693 583M661 561Q661 587 653 610Q645 633 628.50 650.50Q612 668 587.50 678.50Q563 689 531 689Q485 689 420.50 662.50Q356 636 294 586Q337 585 386.50 576Q436 567 477.50 556Q519 545 546 534Q573 523 573 519Q572 509 566 509Q565 509 555 513Q525 525 487 536Q449 547 410.50 554.50Q372 562 337.50 566.50Q303 571 280 571Q225 521 180 458.50Q135 396 115 318Q141 310 172.50 305.50Q204 301 246 301Q271 354 325.50 389Q380 424 451 424Q483 424 510.50 416Q538 408 561 394Q606 425 633.50 467Q661 509 661 561M547 383Q525 395 499.50 401.50Q474 408 449 408Q389 408 339 378.50Q289 349 264 301Q292 302 327 307.50Q362 313 400 323Q438 333 476 348Q514 363 547 383M256 572Q198 570 154.50 558.50Q111 547 81.50 527Q52 507 37.50 480Q23 453 23 422Q23 390 40 365Q57 340 96 324Q113 397 157 460.50Q201 524 256 572M627 231Q627 274 609 314Q591 354 563 374Q525 351 482.50 334Q440 317 399 306Q358 295 320.50 289.50Q283 284 256 283Q245 253 245 223Q245 189 256 165.50Q267 142 284.50 127.50Q302 113 323.50 106.50Q345 100 367 100Q398 100 421.50 115Q445 130 461 149.50Q477 169 485 188.50Q493 208 493 218Q493 227 495 229Q497 231 502 231Q507 231 509 227Q511 223 511 218Q511 210 503.50 188.50Q496 167 478.50 144Q461 121 432 103Q403 85 359 85Q299 85 264 122.50Q229 160 229 225Q229 256 239 283Q204 283 171 287Q138 291 110 300Q102 260 102 222Q102 156 120.50 108Q139 60 171.50 29.50Q204-1 249.50-16Q295-31 349-31Q414-31 465.50-8Q517 15 553 52Q589 89 608 136Q627 183 627 231Z"  horiz-adv-x="703" vert-adv-y="1000"  />

      
      <glyph glyph-name="uni44" unicode="&#x44;" d="M920 348Q920 267 894.50 198Q869 129 827 78Q785 27 730.50-1.50Q676-30 618-30Q580-30 545-23.50Q510-17 475-8Q433-40 376.50-56Q320-72 245-72Q209-72 185-67Q161-62 147-53.50Q133-45 127.50-35Q122-25 122-15Q122 11 155 29Q188 47 261 47Q317 47 370 35.50Q423 24 474 11Q500 33 517.50 56Q535 79 551 108Q528 105 505 105Q412 105 326.50 126.50Q241 148 175.50 187.50Q110 227 71 284.50Q32 342 32 414Q32 457 55 503.50Q78 550 132 589Q186 628 274.50 653Q363 678 494 678Q554 678 611.50 668.50Q669 659 723 637Q738 663 755 683Q772 703 788.50 716.50Q805 730 819 737Q833 744 841 744Q847 744 848 742.50Q849 741 849 737Q849 734 838 729Q804 711 781.50 687Q759 663 739 631Q778 613 811 587Q844 561 868.50 526.50Q893 492 906.50 447.50Q920 403 920 348M750 310Q750 355 727.50 387Q705 419 669 441Q659 398 651.50 367.50Q644 337 634 300Q626 271 618.50 244Q611 217 600 190Q649 197 679 212Q709 227 724.50 244.50Q740 262 745 279.50Q750 297 750 310M901 344Q901 390 886.50 427.50Q872 465 847 495.50Q822 526 789 550Q756 574 719 592Q715 584 709.50 569Q704 554 697.50 535.50Q691 517 685 497Q679 477 674 459Q715 436 742 398.50Q769 361 769 304Q769 268 754 236Q739 204 713 179Q687 154 650.50 136.50Q614 119 572 111Q555 80 536 54Q517 28 493 7Q528-1 559.50-7.50Q591-14 620-14Q668-14 718 11.50Q768 37 808.50 83.50Q849 130 875 196.50Q901 263 901 344M703 598Q668 615 631.50 627Q595 639 559.50 646Q524 653 490.50 656Q457 659 429 659Q347 659 277.50 639Q208 619 157 586Q106 553 77 510.50Q48 468 48 422Q48 384 69 351.50Q90 319 125 292.50Q160 266 207.50 246Q255 226 308 212Q361 198 416.50 191Q472 184 525 184Q542 184 555 184Q568 184 582 186Q593 216 600.50 243.50Q608 271 615 300Q619 319 623.50 335Q628 351 633 367.50Q638 384 643 403.50Q648 423 654 449Q628 462 599.50 470.50Q571 479 542.50 484.50Q514 490 486.50 492.50Q459 495 436 495Q386 495 338 489.50Q290 484 243 470Q228 465 224 465Q213 465 213 473Q213 477 228.50 483.50Q244 490 273.50 496Q303 502 344 506.50Q385 511 436 511Q452 511 477.50 509.50Q503 508 533.50 503.50Q564 499 596 490Q628 481 658 467Q670 508 680 538.50Q690 569 703 598M457-2Q419 9 366 20Q313 31 254 31Q198 31 170 18Q142 5 142-18Q142-29 153.50-36Q165-43 181.50-47.50Q198-52 215.50-54Q233-56 246-56Q315-56 367-42Q419-28 457-2Z"  horiz-adv-x="948" vert-adv-y="1000"  />

      
      <glyph glyph-name="uni45" unicode="&#x45;" d="M700 641Q700 600 674.50 569Q649 538 609 516Q569 494 520.50 482Q472 470 426 468Q426 445 428.50 423Q431 401 439 379Q513 377 549.50 360.50Q586 344 586 317Q586 303 575.50 294Q565 285 540 285Q502 285 472.50 306Q443 327 429 361Q365 359 314.50 342Q264 325 228.50 296.50Q193 268 174.50 229.50Q156 191 156 147Q156 110 175 76.50Q194 43 231.50 18Q269-7 324.50-21.50Q380-36 452-36Q504-36 539.50-20.50Q575-5 597 18.50Q619 42 628 69.50Q637 97 637 121Q637 153 623 175Q609 197 587 210.50Q565 224 537.50 230Q510 236 484 236Q446 236 414.50 228Q383 220 359.50 207Q336 194 323 178Q310 162 310 147Q310 132 319.50 119Q329 106 345 96.50Q361 87 382.50 81.50Q404 76 428 76Q443 76 457 79Q471 82 480 85Q490 89 491 89Q499 89 499 83Q499 77 479.50 68.50Q460 60 420 60Q384 60 360 69Q336 78 321 91Q306 104 299.50 119Q293 134 293 147Q293 160 302 178Q311 196 333.50 212.50Q356 229 393 240.50Q430 252 486 252Q505 252 534 248Q563 244 589.50 230Q616 216 635 189.50Q654 163 654 119Q654 81 638.50 41Q623 1 590.50-32Q558-65 508-86.50Q458-108 388-108Q355-108 310-97Q265-86 224-58.50Q183-31 154.50 14.50Q126 60 126 129Q126 176 140.50 213Q155 250 179 278Q203 306 234 325Q265 344 298 356Q331 368 363 373.50Q395 379 421 379Q413 400 411 421Q409 442 409 466Q314 466 242 445.50Q170 425 122 391Q74 357 49.50 312.50Q25 268 25 219Q25 193 23.50 189Q22 185 16 185Q11 185 9.50 192Q8 199 8 224Q8 267 24.50 313Q41 359 80.50 396.50Q120 434 185.50 458.50Q251 483 349 483Q352 483 360.50 483Q369 483 378.50 483Q388 483 397 482.50Q406 482 410 482Q413 520 430.50 559.50Q448 599 476.50 631.50Q505 664 544 685Q583 706 630 706Q662 706 681 686Q700 666 700 641M685 634Q685 660 667.50 675Q650 690 628 690Q589 690 554 671.50Q519 653 492 624Q465 595 447.50 558Q430 521 427 484Q483 489 530 503Q577 517 611.50 537Q646 557 665.50 582Q685 607 685 634M570 319Q570 323 563 330.50Q556 338 541.50 345Q527 352 506 357Q485 362 458 362L446 362Q463 329 490.50 315Q518 301 545 301Q554 301 561.50 307Q569 313 570 319Z"  horiz-adv-x="711" vert-adv-y="1000"  />

      
      <glyph glyph-name="uni46" unicode="&#x46;" d="M908 650Q908 619 880.50 593.50Q853 568 796 568Q764 568 719.50 578.50Q675 589 606 611L524 637Q503 644 478.50 650.50Q454 657 430 662.50Q406 668 385 671.50Q364 675 349 675Q276 675 221.50 650Q167 625 131 586Q95 547 77 499Q59 451 59 406Q59 366 69 334Q79 302 96 276Q122 347 176 384.50Q230 422 302 422Q346 422 384 404.50Q422 387 449.50 358.50Q477 330 492.50 292.50Q508 255 508 216Q508 169 495.50 129.50Q483 90 460.50 61.50Q438 33 406.50 17Q375 1 336 1Q291 1 270.50 12.50Q250 24 250 31Q250 38 256 38Q261 38 271 32Q287 23 301 20Q315 17 334 17Q359 17 385.50 28Q412 39 433.50 59.50Q455 80 468.50 109.50Q482 139 482 177Q482 207 468.50 235Q455 263 429.50 285.50Q404 308 367 321.50Q330 335 282 335Q232 335 191 309.50Q150 284 125 238Q163 203 209 176.50Q255 150 306 136Q316 133 316 128Q316 122 300 122Q292 122 271.50 128.50Q251 135 224.50 148Q198 161 169 179.50Q140 198 116 221Q98 179 98 125Q98 71 119 30.50Q140-10 175.50-37Q211-64 258-78Q305-92 358-92Q421-92 467-67Q513-42 545-0.50Q577 41 598 93Q619 145 631 199L637 225L545 225Q529 225 529 237Q529 243 533 252Q537 261 551 261L644 261L655 315Q667 372 689.50 413.50Q712 455 737 481.50Q762 508 785.50 521Q809 534 823 534Q832 534 832 528Q832 524 821 519Q788 505 763.50 482.50Q739 460 721 432.50Q703 405 691.50 372.50Q680 340 673 307L663 261L798 261Q806 261 811 257.50Q816 254 816 247Q816 235 809 230Q802 225 794 225L656 225L649 193Q636 134 614 79.50Q592 25 557-16.50Q522-58 473-83Q424-108 358-108Q306-108 255.50-94.50Q205-81 165-50Q125-19 100 30.50Q75 80 75 151Q75 207 89 255Q68 284 55 321Q42 358 42 405Q42 480 71 536.50Q100 593 145.50 630.50Q191 668 247.50 687Q304 706 360 706Q388 706 409 704.50Q430 703 449 700Q468 697 487.50 691.50Q507 686 532 679L731 619Q769 608 789.50 603.50Q810 599 820 599Q853 599 871.50 614Q890 629 890 646Q890 659 885 665.50Q880 672 872 680Q866 686 866 693Q866 703 874 703Q876 703 881.50 698.50Q887 694 893 686.50Q899 679 903.50 669.50Q908 660 908 650Z"  horiz-adv-x="813" vert-adv-y="1000"  />

      
      <glyph glyph-name="uni47" unicode="&#x47;" d="M832 422Q832 420 831 417Q830 414 827 410Q802 378 793 358.50Q784 339 780 319Q762 232 740.50 154.50Q719 77 681 18.50Q643-40 583-74Q523-108 427-108Q370-108 308-90Q246-72 195-34Q144 4 111 63.50Q78 123 78 206L78 217Q78 222 78 227Q78 232 79 237Q45 250 20.50 279Q-4 308-4 359Q-4 425 33 485Q70 545 139.50 590Q209 635 308 661.50Q407 688 532 688Q560 724 600 751Q640 778 682 778Q710 778 734.50 760.50Q759 743 759 705Q759 699 757.50 691.50Q756 684 754 674Q759 674 769.50 673Q780 672 791 670Q802 668 810.50 665.50Q819 663 819 661Q819 657 817.50 653.50Q816 650 813 650Q808 650 789.50 652.50Q771 655 750 657Q737 628 716 595.50Q695 563 670.50 530.50Q646 498 620 468.50Q594 439 571 415Q591 388 599.50 355.50Q608 323 608 272Q636 272 665 283.50Q694 295 720 314.50Q746 334 768 358.50Q790 383 804 409Q809 419 814.50 425.50Q820 432 825 432Q832 432 832 422M742 704Q742 730 726.50 746Q711 762 683 762Q662 762 644 755Q626 748 610 737Q594 726 581 713.50Q568 701 557 689Q582 689 608 687.50Q634 686 658 684Q682 682 702.50 680Q723 678 737 677Q739 683 740.50 691.50Q742 700 742 704M730 659Q712 660 686.50 662.50Q661 665 635 667.50Q609 670 584.50 671.50Q560 673 542 673Q523 653 505.50 629Q488 605 473 581Q458 557 446.50 533.50Q435 510 428 490Q447 488 466.50 482Q486 476 503.50 467.50Q521 459 535 449Q549 439 558 429Q583 454 609.50 484.50Q636 515 659.50 546.50Q683 578 702 607Q721 636 730 659M544 417Q534 429 518.50 439Q503 449 486 456Q469 463 452 467Q435 471 422 473Q417 458 414 441Q411 424 411 415Q411 383 415.50 361Q420 339 434 327Q446 335 460.50 346Q475 357 489.50 369.50Q504 382 518 394Q532 406 544 417M592 271Q592 305 586 342Q580 379 557 403Q546 393 531.50 381Q517 369 502 356.50Q487 344 472.50 332.50Q458 321 446 313Q459 302 472 294Q485 286 501.50 281Q518 276 540 273.50Q562 271 592 271M515 670Q405 670 313 644.50Q221 619 154 576.50Q87 534 50 478.50Q13 423 13 363Q13 319 32.50 292.50Q52 266 80 256Q88 293 105.50 335Q123 377 159.50 412Q196 447 256 470.50Q316 494 410 494Q419 517 431.50 541.50Q444 566 458.50 589Q473 612 487.50 633Q502 654 515 670M403 477Q311 477 254 452Q197 427 164 391.50Q131 356 116.50 316.50Q102 277 97 248Q128 242 156 241Q184 240 213 242Q213 275 227.50 300.50Q242 326 260 343.50Q278 361 294.50 370Q311 379 315 379Q324 379 324 372Q324 369 316 364Q300 354 284.50 342Q269 330 257 316Q245 302 238 284Q231 266 231 244Q252 247 275 253.50Q298 260 320 268.50Q342 277 361.50 286.50Q381 296 395 305Q395 309 393 313Q391 317 389 323.50Q387 330 385 340Q383 350 383 367Q383 399 389 426.50Q395 454 403 477M583 231Q575 229 567.50 229Q560 229 549 229Q507 229 470 243.50Q433 258 405 291Q391 281 371 271Q351 261 327.50 252Q304 243 279.50 236.50Q255 230 232 226Q232 189 248.50 162.50Q265 136 290 118.50Q315 101 343 93Q371 85 395 85Q424 85 453.50 94.50Q483 104 508.50 122.50Q534 141 554 168.50Q574 196 583 231M772 343Q760 328 741 311Q722 294 699 278.50Q676 263 651 251Q626 239 602 234Q594 202 576.50 172Q559 142 532 118.50Q505 95 469.50 81Q434 67 392 67Q360 67 329 75.50Q298 84 273.50 103Q249 122 232.50 152Q216 182 213 225Q179 223 154 222.50Q129 222 96 230Q95 225 95 220.50Q95 216 95 212L95 203Q96 136 123 90Q150 44 193 16Q236-12 290-24Q344-36 399-36Q482-36 544.50-4Q607 28 652 81Q697 134 726 202Q755 270 772 343Z"  horiz-adv-x="819" vert-adv-y="1000"  />

      
      <glyph glyph-name="uni48" unicode="&#x48;" d="M1040 640Q1040 626 1036.50 619.50Q1033 613 1029 613Q1025 613 1023.50 618Q1022 623 1022 626Q1022 629 1022.50 637.50Q1023 646 1023 652Q1023 669 1009 681Q995 693 969 693Q947 693 931.50 684.50Q916 676 904 657Q892 638 882 608Q872 578 861 536L788 261L874 261Q879 261 883 260Q886 258 889 255.50Q892 253 892 247Q892 235 885 230Q878 225 870 225L779 225L695-91Q691-107 683-107Q678-107 676-103Q674-99 676-91L760 225L618 225Q597 156 567.50 95.50Q538 35 497-10Q456-55 403.50-81.50Q351-108 285-108Q241-108 196-94.50Q151-81 114.50-51.50Q78-22 55 23Q32 68 32 131Q32 206 56 254.50Q80 303 115.50 331.50Q151 360 192.50 371Q234 382 269 382Q308 382 343 373Q378 364 404.50 345.50Q431 327 447 297.50Q463 268 463 227Q463 194 449 163.50Q435 133 411 110.50Q387 88 354 74.50Q321 61 282 61Q247 61 224 72Q201 83 187 98.50Q173 114 167 132Q161 150 161 165Q161 177 166 194Q171 211 178.50 226.50Q186 242 194.50 252.50Q203 263 210 263Q217 263 217 254Q217 251 211 243Q195 226 187 203.50Q179 181 179 160Q179 149 184 135Q189 121 201 108Q213 95 232.50 86Q252 77 282 77Q314 77 343.50 88.50Q373 100 395.50 120.50Q418 141 431.50 170Q445 199 445 235Q445 268 430 292.50Q415 317 390.50 333.50Q366 350 335.50 358.50Q305 367 274 367Q218 367 176.50 348.50Q135 330 106.50 300Q78 270 64 231Q50 192 50 152Q50 114 66 81Q82 48 112.50 23Q143-2 187.50-16Q232-30 290-30Q412-30 485 34.50Q558 99 599 225L518 225Q502 225 502 237Q502 243 506 252Q510 261 524 261L612 261L626 308Q639 351 647 399.50Q655 448 655 496Q655 527 644.50 550.50Q634 574 618 590Q602 606 583 614.50Q564 623 548 624Q558 602 558 568Q558 532 548 498Q538 464 520 437.50Q502 411 476.50 395Q451 379 421 379Q398 379 383 400.50Q368 422 368 452Q368 490 384 524Q400 558 423.50 583.50Q447 609 474 624Q501 639 524 639Q508 661 481 675.50Q454 690 409 690Q360 690 316 672Q272 654 235.50 623.50Q199 593 171 553Q143 513 126 470Q123 463 120.50 458Q118 453 116 453Q109 453 109 462Q109 471 117.50 492.50Q126 514 143 541Q160 568 185.50 597.50Q211 627 245 651Q279 675 321.50 690.50Q364 706 415 706Q444 706 465.50 699.50Q487 693 502.50 683.50Q518 674 528 662.50Q538 651 543 641Q568 641 591.50 630Q615 619 633 600.50Q651 582 662 556.50Q673 531 673 502Q673 464 666 416.50Q659 369 642 303L631 261L770 261L849 554Q861 597 871.50 626.50Q882 656 895.50 674.50Q909 693 927 701Q945 709 970 709Q1008 709 1024 688Q1040 667 1040 640M538 590Q538 596 537 605.50Q536 615 532 626Q498 626 470.50 606Q443 586 424 558Q405 530 395 499.50Q385 469 385 448Q385 426 395 410.50Q405 395 416 395Q436 395 457.50 416Q479 437 497 467.50Q515 498 526.50 531.50Q538 565 538 590Z"  horiz-adv-x="894" vert-adv-y="1000"  />

      
      <glyph glyph-name="uni49" unicode="&#x49;" d="M649 500Q649 438 639 369Q629 300 609 232.50Q589 165 559 103Q529 41 487.50-5.50Q446-52 393.50-80Q341-108 277-108Q224-108 179-91.50Q134-75 101.50-44Q69-13 50.50 32Q32 77 32 134Q32 195 51.50 242Q71 289 104.50 320.50Q138 352 183.50 368Q229 384 281 384Q331 384 365 370Q399 356 419.50 335Q440 314 448.50 289Q457 264 457 242Q457 209 445 175.50Q433 142 410.50 115Q388 88 356 71Q324 54 283 54Q223 54 194 83.50Q165 113 165 158Q165 176 169.50 193Q174 210 180 223Q186 236 193.50 244Q201 252 207 252Q210 252 211 249Q212 246 212 243Q212 239 208 233Q182 205 182 158Q182 123 206.50 96.50Q231 70 285 70Q315 70 342.50 83Q370 96 392 119Q414 142 427 173Q440 204 440 240Q440 272 426.50 296Q413 320 391.50 336Q370 352 341.50 360Q313 368 283 368Q231 368 188 351.50Q145 335 114.50 306Q84 277 67 235.50Q50 194 50 145Q50 99 66 66Q82 33 111 11.50Q140-10 180-20Q220-30 268-30Q346-30 403.50-1.50Q461 27 501.50 72.50Q542 118 567.50 174Q593 230 607.50 286Q622 342 627 392Q632 442 632 474Q632 538 622 576Q612 614 596.50 633.50Q581 653 562 658.50Q543 664 525 664Q490 664 469.50 650Q449 636 438.50 616.50Q428 597 425 576Q422 555 422 542Q422 521 428 499Q434 477 445.50 457Q457 437 472 420Q487 403 505 391Q513 386 513 382Q513 373 504 373Q498 373 481 386Q464 399 447 423Q430 447 416.50 481.50Q403 516 403 560Q403 588 411 614Q419 640 434.50 660.50Q450 681 473 693.50Q496 706 525 706Q554 706 577 690.50Q600 675 616 648Q632 621 640.50 583Q649 545 649 500Z"  horiz-adv-x="656" vert-adv-y="1000"  />

      
      <glyph glyph-name="uni4a" unicode="&#x4a;" d="M650 255Q650 251 646.50 247.50Q643 244 632 244L601 244Q580 166 548 87Q516 8 471-55.50Q426-119 367.50-159Q309-199 235-199Q176-199 128-180Q80-161 45.50-131.50Q11-102-8-65.50Q-27-29-27 7Q-27 73 15 118.50Q57 164 136.50 193.50Q216 223 330.50 239Q445 255 589 263Q606 326 614.50 383Q623 440 623 474Q623 535 613.50 572Q604 609 588.50 629.50Q573 650 553.50 657Q534 664 514 664Q479 664 460.50 650Q442 636 434 617.50Q426 599 425.50 580.50Q425 562 425 553Q427 500 447.50 454.50Q468 409 503 376Q510 369 510 364Q510 357 503 357Q495 357 479 373.50Q463 390 447 418Q431 446 419 483Q407 520 407 560Q407 588 412.50 614Q418 640 431 660.50Q444 681 464.50 693.50Q485 706 514 706Q543 706 567 690.50Q591 675 607.50 648Q624 621 633 583Q642 545 642 500Q642 450 634.50 393Q627 336 607 264L634 264Q640 264 645 262Q650 260 650 255M583 245Q530 243 466 238Q402 233 338 223Q274 213 214 197.50Q154 182 107.50 159.50Q61 137 33 106Q5 75 5 34Q5 4 27-24Q49-52 84-73.50Q119-95 164-108Q209-121 254-121Q330-121 383.50-90Q437-59 474-8Q511 43 536.50 109Q562 175 583 245Z"  horiz-adv-x="657" vert-adv-y="1000"  />

      
      <glyph glyph-name="uni4b" unicode="&#x4b;" d="M982 695Q982 687 975 687Q973 687 971 688.50Q969 690 967 692Q954 703 938 703Q919 703 905.50 698Q892 693 881.50 678Q871 663 862 635.50Q853 608 843 564L813 425Q799 358 787.50 318Q776 278 760 253Q776 238 785.50 216.50Q795 195 795 169Q795 149 794 134.50Q793 120 791 103Q789 85 788 73Q787 61 787 48Q787 26 800.50 13.50Q814 1 835 1Q866 1 882.50 22.50Q899 44 905 89Q907 103 910 108Q913 113 917 113Q925 113 923 100Q920 65 912.50 35.50Q905 6 893-15.50Q881-37 864.50-49Q848-61 828-61Q797-61 780.50-38.50Q764-16 764 15Q764 36 766 55Q768 74 773 99Q774 105 775 115.50Q776 126 777 137Q778 148 778.50 157Q779 166 779 170Q779 188 771.50 205.50Q764 223 751 237Q723 202 682.50 181Q642 160 596 159Q574 101 544.50 52Q515 3 477-32.50Q439-68 391-88Q343-108 285-108Q241-108 196-94.50Q151-81 114.50-52.50Q78-24 55 21Q32 66 32 129Q32 207 56 256Q80 305 115.50 333Q151 361 192.50 371.50Q234 382 269 382Q308 382 343 373.50Q378 365 404.50 346.50Q431 328 446.50 298.50Q462 269 462 227Q462 194 449 164Q436 134 412 111Q388 88 355 74.50Q322 61 282 61Q247 61 224 71Q201 81 187 97Q173 113 167 131.50Q161 150 161 168Q161 183 166.50 200Q172 217 179.50 232Q187 247 195.50 256.50Q204 266 211 266Q218 266 218 258Q218 256 215 253Q212 250 209 245Q194 225 186.50 204Q179 183 179 163Q179 152 184 137Q189 122 201 108.50Q213 95 232.50 86Q252 77 282 77Q317 77 347 89.50Q377 102 398.50 124Q420 146 432 174.50Q444 203 444 235Q444 269 429 293.50Q414 318 390 334.50Q366 351 335.50 359Q305 367 274 367Q218 367 176.50 349Q135 331 106.50 301Q78 271 64 232Q50 193 50 150Q50 112 66 79Q82 46 112.50 22Q143-2 187.50-16Q232-30 290-30Q396-30 464.50 18.50Q533 67 575 162Q554 166 540.50 180Q527 194 527 215Q527 228 533 241.50Q539 255 550.50 266Q562 277 579.50 284.50Q597 292 620 292L629 326Q643 379 649 417Q655 455 655 496Q655 527 644.50 550.50Q634 574 618 590Q602 606 583 614.50Q564 623 548 624Q553 612 555.50 597.50Q558 583 558 568Q558 532 548 498Q538 464 520 437.50Q502 411 476.50 395Q451 379 421 379Q398 379 382 400.50Q366 422 366 454Q366 492 382 525.50Q398 559 422 584.50Q446 610 473.50 624.50Q501 639 524 639Q506 661 481 675.50Q456 690 409 690Q358 690 314.50 672Q271 654 235 623.50Q199 593 171.50 552.50Q144 512 125 467Q120 453 115 453Q109 453 109 462Q109 471 117.50 492.50Q126 514 143 541Q160 568 185.50 597.50Q211 627 245 651Q279 675 321.50 690.50Q364 706 415 706Q466 706 497 687Q528 668 544 641Q569 641 592 630Q615 619 633 600.50Q651 582 661.50 556.50Q672 531 672 502Q672 475 670.50 453.50Q669 432 666 412Q663 392 658 371Q653 350 646 322L638 292Q679 291 704.50 283Q730 275 747 263Q754 275 759.50 289Q765 303 770.50 322Q776 341 782 367Q788 393 796 428L827 573Q837 619 847 647.50Q857 676 869.50 691.50Q882 707 896.50 712Q911 717 930 717Q956 717 969 708Q982 699 982 695M537 590Q537 598 536 606Q535 614 532 625Q498 625 470.50 605.50Q443 586 423.50 558.50Q404 531 393.50 500Q383 469 383 447Q383 424 395.50 409.50Q408 395 416 395Q436 395 457.50 415.50Q479 436 496.50 466Q514 496 525.50 530Q537 564 537 590M738 247Q714 264 688.50 269Q663 274 634 276Q626 250 618.50 225Q611 200 601 176Q643 178 680 196.50Q717 215 738 247M615 276Q587 273 565.50 257.50Q544 242 544 217Q544 204 554 193.50Q564 183 582 178Q592 202 600 227Q608 252 615 276Z"  horiz-adv-x="958" vert-adv-y="1000"  />

      
      <glyph glyph-name="uni4c" unicode="&#x4c;" d="M798 654Q798 629 786.50 585Q775 541 748 490.50Q721 440 675.50 391.50Q630 343 561 309Q558 272 548.50 231Q539 190 523 150.50Q507 111 484.50 75Q462 39 432 12Q460-31 487.50-48Q515-65 536-65Q556-65 572-44Q588-23 599.50 5.50Q611 34 617 63.50Q623 93 623 111Q623 140 631 140Q637 140 639 134Q641 128 641 119Q641 110 639 90Q637 70 631 45Q625 20 615.50-7Q606-34 591-56.50Q576-79 555.50-93.50Q535-108 507-108Q465-108 428-82.50Q391-57 350-20Q342-24 326.50-29Q311-34 293.50-38Q276-42 258.50-44.50Q241-47 230-47Q193-47 156.50-40Q120-33 90.50-19Q61-5 42.50 16Q24 37 24 66Q24 82 32.50 98.50Q41 115 58 128Q75 141 101.50 149Q128 157 164 157Q203 157 239 146Q275 135 307 117Q339 99 367.50 75.50Q396 52 420 27Q444 48 464.50 79Q485 110 500.50 147Q516 184 527 224.50Q538 265 543 305Q505 289 456.50 278Q408 267 349 267Q212 267 135 318Q58 369 58 471Q58 507 74.50 548Q91 589 126 624Q161 659 215.50 682.50Q270 706 346 706Q383 706 422.50 699Q462 692 494.50 683Q527 674 547.50 665Q568 656 568 652Q568 641 562 641Q558 641 548 646Q502 665 449 677.50Q396 690 346 690Q288 690 238.50 672.50Q189 655 152.50 625Q116 595 95.50 556Q75 517 75 475Q75 424 95.50 387.50Q116 351 152 328Q188 305 237 294Q286 283 344 283Q402 283 451.50 293.50Q501 304 549 326Q553 346 561 382.50Q569 419 581.50 462.50Q594 506 610.50 550.50Q627 595 647.50 631.50Q668 668 692.50 691.50Q717 715 746 715Q767 715 782.50 700Q798 685 798 654M782 646Q782 669 773.50 683Q765 697 748 697Q724 697 702 676.50Q680 656 661.50 623Q643 590 628 548.50Q613 507 601 466.50Q589 426 580 390Q571 354 566 331Q611 353 644 383.50Q677 414 701 447.50Q725 481 740.50 514Q756 547 765.50 574.50Q775 602 778.50 621Q782 640 782 646M335-8Q319 11 292.50 33.50Q266 56 235.50 75.50Q205 95 173 108Q141 121 114 121Q85 121 63.50 104Q42 87 42 60Q42 46 55 30Q68 14 93 0.50Q118-13 153.50-22Q189-31 234-31Q246-31 261.50-29Q277-27 291-23.50Q305-20 317-16Q329-12 335-8Z"  horiz-adv-x="708" vert-adv-y="1000"  />

      
      <glyph glyph-name="uni4d" unicode="&#x4d;" d="M1103 159Q1103 155 1101 139Q1099 123 1094 101Q1089 79 1080.50 55Q1072 31 1060 10.50Q1048-10 1030.50-23.50Q1013-37 991-37Q965-37 942.50-19Q920-1 920 32Q920 42 920.50 52Q921 62 923.50 76.50Q926 91 930.50 112.50Q935 134 943 167L1004 420Q985 422 966 424.50Q947 427 927 429L773 46Q765 28 758 9Q751-10 744-10Q739-10 736.50-3.50Q734 3 734 10Q734 18 736 37Q738 56 740 68L777 440Q757 441 735.50 442Q714 443 692 444L603 165Q585 107 558 57Q531 7 494-29.50Q457-66 409.50-87Q362-108 302-108Q255-108 206-91.50Q157-75 117-41.50Q77-8 51.50 43.50Q26 95 26 165Q26 216 44 256Q62 296 92.50 324Q123 352 163 368Q203 384 247 388Q289 423 349.50 443Q410 463 484 463Q589 463 681 460L731 616Q740 644 747 662Q754 680 760.50 689.50Q767 699 774.50 702.50Q782 706 791 706Q802 706 809 697Q816 688 816 675Q816 663 813 636Q810 609 808 585Q807 576 804 539.50Q801 503 796 455Q825 454 857.50 451.50Q890 449 914 446L984 621Q1004 672 1016.50 689Q1029 706 1047 706Q1059 706 1067 695Q1075 684 1075 665Q1075 657 1072.50 642Q1070 627 1066 610Q1062 593 1058.50 578.50Q1055 564 1054 558L1024 435Q1048 432 1062 429.50Q1076 427 1083.50 425Q1091 423 1093 421Q1095 419 1095 416Q1095 409 1089 409Q1088 409 1085 409Q1082 409 1077 410Q1063 412 1049.50 414Q1036 416 1020 418L964 183Q951 130 944.50 93.50Q938 57 938 33Q938 10 953-3.50Q968-17 988-17Q1009-17 1025-2Q1041 13 1053 36.50Q1065 60 1073 89.50Q1081 119 1085 149Q1087 165 1089.50 170Q1092 175 1097 175Q1102 175 1102.50 169.50Q1103 164 1103 159M1043 602Q1043 617 1039.50 623Q1036 629 1027 629Q1015 629 1006.50 618Q998 607 984 571L933 445Q954 443 973 441Q992 439 1008 437L1036 554Q1039 567 1041 579.50Q1043 592 1043 602M791 590Q791 612 786.50 621Q782 630 768 630Q756 630 750 618.50Q744 607 734 575L697 459Q739 457 778 456L784 513Q786 536 788.50 557Q791 578 791 590M908 430Q881 434 853.50 435.50Q826 437 795 439L771 195Q768 168 766.50 152Q765 136 764.50 127Q764 118 763.50 114Q763 110 763 106Q763 98 762 90Q761 82 766 82Q770 82 775 96.50Q780 111 793 143L908 430L908 430M676 444Q587 447 488 447Q418 447 364.50 431Q311 415 274 389Q322 389 355.50 375.50Q389 362 410.50 340.50Q432 319 442 292Q452 265 452 237Q452 206 439 180.50Q426 155 404 137Q382 119 354 109Q326 99 296 99Q258 99 234 112Q210 125 195.50 144.50Q181 164 175.50 187.50Q170 211 170 231Q170 271 187 306.50Q204 342 232 371Q183 365 147.50 344Q112 323 89 294Q66 265 55 230.50Q44 196 44 163Q44 122 59 87Q74 52 102 26Q130 0 170-15Q210-30 260-30Q310-30 361.50-18Q413-6 460.50 25.50Q508 57 547.50 111Q587 165 614 249L676 444L676 444M435 231Q435 271 420 298Q405 325 380 342Q355 359 323.50 366.50Q292 374 258 374Q222 342 204.50 304Q187 266 187 231Q187 208 193.50 187.50Q200 167 213.50 150.50Q227 134 248.50 124.50Q270 115 300 115Q330 115 355 125Q380 135 397.50 151.50Q415 168 425 189Q435 210 435 231Z"  horiz-adv-x="1142" vert-adv-y="1000"  />

      
      <glyph glyph-name="uni4e" unicode="&#x4e;" d="M1055 667Q1055 659 1051 659Q1047 659 1042 664Q1033 673 1024 677Q1015 681 1001 681Q975 681 959.50 661Q944 641 930 585L884 398Q909 390 919.50 385.50Q930 381 930 375Q930 367 922 367Q918 367 911 370Q904 372 895 375.50Q886 379 880 381L809 84Q797 34 785.50 9Q774-16 756-16Q744-16 736-5Q728 6 728 25Q728 32 729 46Q730 60 731.50 74Q733 88 734 101Q735 114 736 120L772 411Q752 416 728.50 421Q705 426 686 429L599 165Q580 107 556.50 57Q533 7 499-29.50Q465-66 417.50-87Q370-108 302-108Q249-108 199-91.50Q149-75 110.50-41.50Q72-8 49 43.50Q26 95 26 165Q26 217 44 257Q62 297 93 325Q124 353 164.50 369Q205 385 250 388Q292 423 352 443.50Q412 464 484 464Q557 464 602.50 459.50Q648 455 676 449L723 591Q735 628 743 650.50Q751 673 758 685.50Q765 698 772.50 702Q780 706 791 706Q802 706 809 697Q816 688 816 675Q816 663 813 636Q810 609 808 585Q807 575 802 529.50Q797 484 790 426Q813 421 832.50 415Q852 409 868 404L914 589Q922 620 930 641Q938 662 948.50 674.50Q959 687 972 692Q985 697 1002 697Q1028 697 1041.50 686Q1055 675 1055 667M791 590Q791 612 786.50 621Q782 630 768 630Q756 630 750.50 618Q745 606 734 575L691 446Q712 442 735 437.50Q758 433 774 429L784 513Q787 536 789 557Q791 578 791 590M864 386Q846 392 826.50 397Q807 402 788 407L762 195Q755 141 754 118.50Q753 96 753 89Q753 81 756 72.50Q759 64 768 64Q774 64 778 66.50Q782 69 786 76.50Q790 84 793.50 97Q797 110 802 130L864 386L864 386M670 432Q652 437 603 442Q554 447 488 447Q421 447 368 430.50Q315 414 279 389Q325 389 358 375.50Q391 362 412 340.50Q433 319 442.50 291.50Q452 264 452 237Q452 206 439 180.50Q426 155 404 137Q382 119 354 109Q326 99 296 99Q258 99 234 112Q210 125 195.50 144.50Q181 164 175.50 187.50Q170 211 170 231Q170 270 188.50 306.50Q207 343 236 372Q186 366 150 345Q114 324 90.50 295Q67 266 55.50 231.50Q44 197 44 163Q44 122 59 87Q74 52 102 26Q130 0 170-15Q210-30 260-30Q310-30 360.50-18.50Q411-7 457 24Q503 55 542.50 109Q582 163 610 249L670 432L670 432M435 231Q435 270 421.50 297.50Q408 325 384.50 342Q361 359 329.50 366.50Q298 374 262 374Q223 341 205 302Q187 263 187 231Q187 208 193.50 187.50Q200 167 213.50 150.50Q227 134 248.50 124.50Q270 115 300 115Q330 115 355 125Q380 135 397.50 151.50Q415 168 425 189Q435 210 435 231Z"  horiz-adv-x="914" vert-adv-y="1000"  />

      
      <glyph glyph-name="uni4f" unicode="&#x4f;" d="M810 253Q810 191 788.50 130Q767 69 720.50 20.50Q674-28 600.50-58.50Q527-89 423-89Q339-89 268.50-69Q198-49 147-7Q96 35 67.50 100.50Q39 166 39 258Q39 344 68 420.50Q97 497 154 554Q211 611 297 644.50Q383 678 497 678Q580 678 635 655Q690 632 722.50 598.50Q755 565 768.50 528Q782 491 782 464Q782 439 780.50 421Q779 403 775 386Q788 366 799 330.50Q810 295 810 253M792 256Q792 293 784 319.50Q776 346 768 363Q766 354 760.50 338Q755 322 748.50 306Q742 290 735 278Q728 266 722 266Q717 266 717 273Q717 275 718 278Q719 281 721 286Q732 312 741 333Q750 354 755 383Q750 389 731.50 407.50Q713 426 681 445Q649 464 602 479.50Q555 495 493 495Q427 495 377 478Q327 461 293.50 430.50Q260 400 243 359Q226 318 226 272Q226 243 239.50 217.50Q253 192 278.50 172.50Q304 153 341 141.50Q378 130 426 130Q471 130 503.50 138.50Q536 147 557 161.50Q578 176 588 194.50Q598 213 598 234Q598 252 599 258.50Q600 265 605 265Q610 265 612 258Q614 251 614 231Q614 215 606.50 194.50Q599 174 578 156Q557 138 520.50 126Q484 114 426 114Q378 114 338 124.50Q298 135 269.50 155Q241 175 225 205Q209 235 209 274Q209 337 233 382Q257 427 296.50 455.50Q336 484 388 497.50Q440 511 496 511Q539 511 579.50 501.50Q620 492 655 477Q690 462 717.50 442.50Q745 423 761 403Q764 415 764.50 430Q765 445 765 454Q765 485 751 521.50Q737 558 705.50 589.50Q674 621 622.50 641.50Q571 662 495 662Q393 662 312.50 632Q232 602 176 550Q120 498 90.50 428Q61 358 61 277Q61 231 75 181Q89 131 127 89Q165 47 232 20Q299-7 406-7Q481-7 550.50 9Q620 25 674 57.50Q728 90 760 139.50Q792 189 792 256Z"  horiz-adv-x="849" vert-adv-y="1000"  />

      
      <glyph glyph-name="uni50" unicode="&#x50;" d="M855 469Q855 430 843 406Q831 382 815.50 368.50Q800 355 783.50 350.50Q767 346 758 346Q740 346 726 351.50Q712 357 712 364Q712 372 720 372Q722 372 724.50 371Q727 370 729 369Q737 365 743 363.50Q749 362 758 362Q774 362 788.50 370Q803 378 814.50 392Q826 406 832.50 425Q839 444 839 467Q839 499 818 529Q797 559 752.50 582.50Q708 606 639 620Q570 634 474 634Q348 634 267 608.50Q186 583 139.50 544.50Q93 506 75.50 460Q58 414 58 373Q58 332 67.50 305Q77 278 93 258Q100 273 116 296Q132 319 157.50 341.50Q183 364 217.50 380Q252 396 296 396Q347 396 382.50 377Q418 358 440.50 328.50Q463 299 473.50 263.50Q484 228 484 194Q484 165 479 142.50Q474 120 468 105Q461 87 453 74Q466 69 477 67.50Q488 66 496 66Q508 66 508 57Q508 49 492 49Q487 49 472.50 50.50Q458 52 444 56Q438 48 426 37Q414 26 397.50 16Q381 6 361.50-0.50Q342-7 320-7Q304-7 289-3.50Q274 0 262.50 5Q251 10 244 15.50Q237 21 237 25Q237 34 244 34Q246 34 256 29Q269 22 286.50 15.50Q304 9 318 9Q333 9 349 14Q365 19 379.50 26.50Q394 34 406 43.50Q418 53 425 62Q391 69 348.50 84.50Q306 100 262 120Q212 143 174 168Q136 193 113 212Q104 192 98.50 165.50Q93 139 93 116Q93 70 112 32Q131-6 163-33.50Q195-61 238.50-76.50Q282-92 332-92Q373-92 410-81.50Q447-71 478-45.50Q509-20 533.50 22.50Q558 65 576 130L642 372Q658 431 675 461.50Q692 492 709 509Q732 532 742 532Q752 532 752 522Q752 516 743 511Q707 490 689 449Q671 408 658 360L596 132Q582 82 562.50 38.50Q543-5 512.50-37.50Q482-70 439-89Q396-108 336-108Q289-108 241.50-95Q194-82 156-52Q118-22 94.50 27Q71 76 71 148Q71 178 75.50 201.50Q80 225 86 243Q68 263 55 294Q42 325 42 375Q42 441 68.50 496.50Q95 552 149 592.50Q203 633 285 655.50Q367 678 478 678Q583 678 655 660Q727 642 771.50 612.50Q816 583 835.50 545.50Q855 508 855 469M460 168Q460 193 448 219.50Q436 246 413.50 268Q391 290 358.50 304Q326 318 284 318Q250 318 224 309.50Q198 301 178.50 288.50Q159 276 145 260Q131 244 121 229Q155 200 195 175.50Q235 151 274 133Q290 125 312 116.50Q334 108 356.50 100Q379 92 399.50 86Q420 80 434 78Q442 89 451 113.50Q460 138 460 168Z"  horiz-adv-x="740" vert-adv-y="1000"  />

      
      <glyph glyph-name="uni51" unicode="&#x51;" d="M810 253Q810 191 788.50 130Q767 69 720.50 20.50Q674-28 600.50-58.50Q527-89 423-89Q339-89 268.50-69Q198-49 147-7Q96 35 67.50 100.50Q39 166 39 258Q39 344 68 420.50Q97 497 154 554Q211 611 297 644.50Q383 678 497 678Q580 678 635 655Q690 632 722.50 598.50Q755 565 768.50 528Q782 491 782 464Q782 439 780.50 421Q779 403 775 386Q788 366 799 330.50Q810 295 810 253M627-111Q627-132 617.50-151.50Q608-171 590-186Q572-201 545-210.50Q518-220 483-220Q467-220 448-218Q429-216 410.50-212.50Q392-209 375.50-205Q359-201 348-196L239-151Q222-144 213.50-141.50Q205-139 202-139Q189-139 179.50-145Q170-151 170-163Q170-166 174-170Q178-174 178-176Q178-178 176.50-182.50Q175-187 171-187Q166-187 160.50-179.50Q155-172 155-159Q155-151 158.50-142Q162-133 170.50-125Q179-117 193-111.50Q207-106 229-106Q257-106 292-119L433-173Q459-183 479.50-187Q500-191 515-191Q536-191 553.50-184.50Q571-178 584-167Q597-156 604-142Q611-128 611-113Q611-91 619-91Q624-91 625.50-98.50Q627-106 627-111M792 256Q792 293 784 319.50Q776 346 768 363Q766 354 760.50 338Q755 322 748.50 306Q742 290 735 278Q728 266 722 266Q717 266 717 273Q717 275 718 278Q719 281 721 286Q732 312 741 333Q750 354 755 383Q750 389 731.50 407.50Q713 426 681 445Q649 464 602 479.50Q555 495 493 495Q427 495 377 478Q327 461 293.50 430.50Q260 400 243 359Q226 318 226 272Q226 243 239.50 217.50Q253 192 278.50 172.50Q304 153 341 141.50Q378 130 426 130Q471 130 503.50 138.50Q536 147 557 161.50Q578 176 588 194.50Q598 213 598 234Q598 252 599 258.50Q600 265 605 265Q610 265 612 258Q614 251 614 231Q614 215 606.50 194.50Q599 174 578 156Q557 138 520.50 126Q484 114 426 114Q378 114 338 124.50Q298 135 269.50 155Q241 175 225 205Q209 235 209 274Q209 337 233 382Q257 427 296.50 455.50Q336 484 388 497.50Q440 511 496 511Q539 511 579.50 501.50Q620 492 655 477Q690 462 717.50 442.50Q745 423 761 403Q764 415 764.50 430Q765 445 765 454Q765 485 751 521.50Q737 558 705.50 589.50Q674 621 622.50 641.50Q571 662 495 662Q393 662 312.50 632Q232 602 176 550Q120 498 90.50 428Q61 358 61 277Q61 231 75 181Q89 131 127 89Q165 47 232 20Q299-7 406-7Q481-7 550.50 9Q620 25 674 57.50Q728 90 760 139.50Q792 189 792 256Z"  horiz-adv-x="849" vert-adv-y="1000"  />

      
      <glyph glyph-name="uni52" unicode="&#x52;" d="M922 88Q909-6 887-48.50Q865-91 827-91Q796-91 779.50-69.50Q763-48 763-15Q763 6 765.50 25Q768 44 773 69Q774 75 776 85.50Q778 96 779.50 107Q781 118 782 127Q783 136 783 140Q783 177 757 206Q694 134 599 134Q585 83 565 38.50Q545-6 514.50-38.50Q484-71 441-89.50Q398-108 338-108Q289-108 241.50-95.50Q194-83 157-53Q120-23 97 26Q74 75 74 148Q74 178 77.50 200.50Q81 223 87 241Q69 260 55.50 295.50Q42 331 42 375Q42 441 69 496.50Q96 552 150 592.50Q204 633 286.50 655.50Q369 678 480 678Q594 678 665.50 653.50Q737 629 778 590Q789 598 803.50 607Q818 616 825 616Q835 616 835 608Q835 603 828 600Q818 595 808.50 590Q799 585 790 578Q818 546 829.50 509Q841 472 841 434Q841 373 822 317Q803 261 769 219Q801 189 801 139Q801 119 797.50 101Q794 83 792 73Q789 56 787.50 43.50Q786 31 786 18Q786-4 799.50-16.50Q813-29 834-29Q866-29 881-5Q896 19 904 77Q906 91 908.50 96Q911 101 915 101Q924 101 922 88M823 422Q823 464 807 499Q791 534 758 561Q739 545 727 532.50Q715 520 707 505.50Q699 491 692 472Q685 453 677 423L633 262Q678 262 707.50 253.50Q737 245 756 232Q769 248 781 270Q793 292 802.50 317.50Q812 343 817.50 370Q823 397 823 422M745 218Q727 231 700.50 238.50Q674 246 645 246Q640 246 636 246Q632 246 628 245L602 150Q645 150 681.50 168Q718 186 745 218M609 244Q599 244 589 238.50Q579 233 570.50 225Q562 217 557 207Q552 197 552 187Q552 171 563 161.50Q574 152 584 152L609 244L609 244M745 571Q703 600 637 617Q571 634 476 634Q350 634 269 608.50Q188 583 141.50 544.50Q95 506 77.50 460Q60 414 60 373Q60 337 69 308Q78 279 95 258Q101 274 117 297.50Q133 321 158.50 343Q184 365 219 380.50Q254 396 298 396Q349 396 384.50 377Q420 358 442.50 328.50Q465 299 475.50 263.50Q486 228 486 194Q486 165 481 142.50Q476 120 470 105Q463 87 455 74Q466 71 478 68.50Q490 66 498 66Q506 66 508 64Q510 62 510 58Q510 49 488 49Q483 49 471.50 50.50Q460 52 446 56Q440 46 428 35Q416 24 400 14.50Q384 5 364-1Q344-7 322-7Q306-7 291-3.50Q276 0 264.50 5Q253 10 246 15.50Q239 21 239 25Q239 34 246 34Q250 34 259 28Q276 18 292 13.50Q308 9 320 9Q354 9 383 24.50Q412 40 426 61Q407 65 385.50 72Q364 79 342 87Q320 95 300 103.50Q280 112 264 120Q246 129 225 140.50Q204 152 184 164Q164 176 146 188.50Q128 201 115 212Q106 192 101 165.50Q96 139 96 116Q96 70 113.50 32Q131-6 162.50-33.50Q194-61 238-76.50Q282-92 334-92Q390-92 430.50-75.50Q471-59 499.50-28.50Q528 2 547 44Q566 86 580 136Q574 136 566 140Q558 144 551 150.50Q544 157 539.50 166Q535 175 535 185Q535 210 554.50 233Q574 256 613 260L661 435Q669 465 677 485.50Q685 506 694 521Q703 536 715.50 547.50Q728 559 745 571M462 168Q462 193 450 219.50Q438 246 415.50 268Q393 290 360.50 304Q328 318 286 318Q252 318 226 309.50Q200 301 180.50 288.50Q161 276 147 260Q133 244 123 229Q158 199 197.50 175Q237 151 276 133Q292 125 314 116.50Q336 108 358.50 100Q381 92 401.50 85.50Q422 79 436 77Q444 88 453 113Q462 138 462 168Z"  horiz-adv-x="946" vert-adv-y="1000"  />

      
      <glyph glyph-name="uni53" unicode="&#x53;" d="M884 646Q884 619 870 575.50Q856 532 827 484Q798 436 753.50 389Q709 342 649 306Q644 285 643 277Q642 271 641 267Q621 168 591.50 97Q562 26 520-19.50Q478-65 422-86.50Q366-108 293-108Q234-108 188.50-90Q143-72 111.50-39.50Q80-7 63.50 38.50Q47 84 47 140Q47 222 82 278.50Q117 335 171 364Q144 402 144 463Q144 500 161.50 541Q179 582 214.50 616Q250 650 304 672Q358 694 432 694Q479 694 519.50 687.50Q560 681 590 673Q620 665 637 657.50Q654 650 654 647Q654 636 648 636Q647 636 643 637Q639 638 634 640Q586 659 532.50 668.50Q479 678 432 678Q374 678 324.50 660Q275 642 238.50 612.50Q202 583 181.50 545Q161 507 161 467Q161 438 168 413.50Q175 389 187 372Q239 395 294 395Q326 395 356 388Q386 381 411 367Q436 353 453.50 331.50Q471 310 478 281Q520 285 558 295Q596 305 634 322Q639 354 648 395.50Q657 437 669.50 479.50Q682 522 698 562.50Q714 603 734 635Q754 667 778.50 686.50Q803 706 832 706Q853 706 868.50 691Q884 676 884 646M868 643Q868 663 861 676Q854 689 834 688Q808 687 786 667Q764 647 745 615.50Q726 584 711 544.50Q696 505 684.50 465.50Q673 426 665 390Q657 354 654 330Q705 362 745 406Q785 450 812 495Q839 540 853.50 580Q868 620 868 643M460 279Q447 324 405 351Q363 378 294 379Q242 379 196 359Q231 317 291.50 297.50Q352 278 430 278Q438 278 445 278Q452 278 460 279M630 300Q599 288 562 278Q525 268 481 264Q482 259 482 254.50Q482 250 482 245Q482 204 466.50 171Q451 138 425.50 115Q400 92 368 79Q336 66 302 66Q272 66 249 75Q226 84 210.50 98Q195 112 187.50 130.50Q180 149 180 168Q180 187 185.50 204.50Q191 222 198.50 235Q206 248 213 256Q220 264 223 264Q228 264 229.50 261Q231 258 231 255Q231 252 221 240Q208 226 202.50 205Q197 184 197 168Q197 132 225 107Q253 82 307 82Q340 82 369 95.50Q398 109 419 131.50Q440 154 452.50 182.50Q465 211 465 241Q465 247 464.50 252.50Q464 258 463 263Q456 263 449.50 262.50Q443 262 435 262Q344 262 279.50 284Q215 306 180 351Q130 324 98 271Q66 218 66 140Q66 86 91 52.50Q116 19 151.50 0.50Q187-18 225.50-24.50Q264-31 290-31Q367-31 424-8Q481 15 521 55.50Q561 96 586 152Q611 208 625 275Q626 280 627 284Q628 288 628.50 292Q629 296 630 300Z"  horiz-adv-x="697" vert-adv-y="1000"  />

      
      <glyph glyph-name="uni54" unicode="&#x54;" d="M839 591Q839 572 827.50 556.50Q816 541 796.50 529.50Q777 518 752 512Q727 506 699 506Q651 506 595 517Q539 528 470 554L391 583Q340 539 305 489Q270 439 249 388.50Q228 338 219 290.50Q210 243 210 203Q210 157 223 122Q236 87 257.50 61Q279 35 305.50 18Q332 1 359-9.50Q386-20 411-24.50Q436-29 453-29Q510-29 556.50-12.50Q603 4 636 31.50Q669 59 687 95.50Q705 132 705 172Q705 188 702 207.50Q699 227 689 253Q683 269 683 278Q683 281 684.50 284Q686 287 690 287Q693 287 699 275Q705 263 710.50 243.50Q716 224 720 199Q724 174 724 147Q723 96 707 50Q691 4 660.50-31Q630-66 585.50-87Q541-108 484-108Q425-108 372-87.50Q319-67 279.50-27Q240 13 216.50 70Q193 127 193 201Q193 252 203.50 304Q214 356 236 405.50Q258 455 292 501.50Q326 548 373 589L308 614Q263 631 231 642.50Q199 654 176.50 660.50Q154 667 138 669.50Q122 672 110 672Q96 672 79.50 664.50Q63 657 49.50 643.50Q36 630 27 611Q18 592 18 570Q18 510 31.50 457Q45 404 77 350Q80 345 82.50 341Q85 337 85 335Q85 327 84 326Q83 325 78 325Q74 325 61.50 341Q49 357 35 387.50Q21 418 10 463.50Q-1 509-1 569Q-1 596 9 621Q19 646 37.50 665Q56 684 81.50 695Q107 706 138 706Q156 706 192.50 699Q229 692 296 667L419 622Q470 652 529 668Q588 684 654 684Q692 684 725.50 676Q759 668 784.50 655Q810 642 824.50 625Q839 608 839 591M820 593Q820 610 802 623.50Q784 637 758.50 647Q733 657 705 662Q677 667 658 667Q595 667 540 651.50Q485 636 439 615L575 568Q613 555 655.50 547.50Q698 540 736 540Q778 540 799 555.50Q820 571 820 593Z"  horiz-adv-x="790" vert-adv-y="1000"  />

      
      <glyph glyph-name="uni55" unicode="&#x55;" d="M849 639Q849 631 846.50 619Q844 607 841 595L721 109Q716 88 712 68.50Q708 49 708 36Q708 15 720-1Q732-17 755-17Q766-17 776-13.50Q786-10 795.50 0.50Q805 11 814 30Q823 49 832 81Q835 93 841 93Q846 93 846 81Q846 77 838.50 51.50Q831 26 816.50-3.50Q802-33 782-56.50Q762-80 738-80Q712-80 696-63Q680-46 680-8Q680 12 687 44.50Q694 77 708 130L833 619Q834 623 835 626Q836 629 836 632Q836 637 832 637Q827 637 820 615L700 250Q677 181 651 116Q625 51 591 1.50Q557-48 513.50-78Q470-108 412-108Q374-108 347-94Q320-80 302.50-58Q285-36 276.50-9.50Q268 17 268 42Q268 64 270 82Q272 100 279.50 123.50Q287 147 302 179Q317 211 342 262L401 381Q420 419 426 452Q432 485 432 530Q432 562 421.50 590Q411 618 393 638.50Q375 659 351.50 671Q328 683 301 683Q266 683 235 669Q274 652 297.50 612.50Q321 573 321 507Q321 468 309 430.50Q297 393 276.50 364Q256 335 228.50 317.50Q201 300 171 300Q128 300 106 337Q84 374 84 434Q84 464 90.50 496Q97 528 110 558.50Q123 589 143 616.50Q163 644 189 664Q183 665 177 665.50Q171 666 164 666Q124 666 92.50 644Q61 622 39 587Q17 552 5 507.50Q-7 463-7 418Q-7 364 6.50 322Q20 280 52 238Q56 233 58.50 229.50Q61 226 61 225Q61 215 54 215Q51 215 38 228.50Q25 242 11.50 267.50Q-2 293-13 330Q-24 367-24 414Q-24 463-12 511.50Q0 560 24 597.50Q48 635 84 658.50Q120 682 168 682Q179 682 189 681Q199 680 209 678Q254 706 312 706Q358 706 386 689.50Q414 673 428.50 647.50Q443 622 447.50 591.50Q452 561 452 534Q452 505 448.50 480Q445 455 438.50 432.50Q432 410 422.50 388.50Q413 367 402 345L364 270Q339 220 329.50 182.50Q320 145 320 111Q320 84 327.50 57.50Q335 31 351 11Q367-9 392.50-21.50Q418-34 454-34Q529-34 581.50 37.50Q634 109 678 239L800 597Q812 632 819 646.50Q826 661 837 661Q845 661 847 654Q849 647 849 639M304 503Q304 558 283.50 600.50Q263 643 215 659Q188 642 167 617Q146 592 131.50 562Q117 532 109 499Q101 466 101 434Q101 382 120.50 349.50Q140 317 176 317Q195 317 217 332Q239 347 258.50 372.50Q278 398 291 432Q304 466 304 503Z"  horiz-adv-x="887" vert-adv-y="1000"  />

      
      <glyph glyph-name="uni56" unicode="&#x56;" d="M785 565Q785 546 776 546Q768 546 768 569Q768 578 758 590Q748 602 730 602Q713 602 702 597Q691 592 682 577Q673 562 664.50 535Q656 508 645 464L578 188Q560 113 543 57.50Q526 2 505-34.50Q484-71 456.50-89.50Q429-108 391-108Q359-108 336-98Q313-88 298-71.50Q283-55 276-32.50Q269-10 269 15Q269 31 271.50 47.50Q274 64 282 90.50Q290 117 306 157Q322 197 349 261L386 348Q411 407 418 449.50Q425 492 425 529Q425 561 414.50 590Q404 619 386 640.50Q368 662 344.50 675Q321 688 294 688Q265 688 240 676Q276 657 299.50 617Q323 577 323 511Q323 472 312.50 435.50Q302 399 283 370.50Q264 342 237.50 325Q211 308 180 308Q137 308 114.50 345Q92 382 92 442Q92 470 99 501.50Q106 533 120 564Q134 595 154.50 623Q175 651 202 671Q181 677 157 677Q117 677 86.50 654Q56 631 35 594.50Q14 558 3.50 513Q-7 468-7 425Q-7 375 12.50 327.50Q32 280 67 240Q76 229 76 224Q76 214 68 214Q65 214 50.50 231Q36 248 19.50 276.50Q3 305-10.50 343Q-24 381-24 423Q-24 470-13 518Q-2 566 21 605Q44 644 78.50 668.50Q113 693 161 693Q177 693 192 691Q207 689 221 684Q260 706 305 706Q351 706 379.50 689Q408 672 423 646.50Q438 621 443 590.50Q448 560 448 533Q448 496 438.50 451.50Q429 407 403 344L363 249Q346 209 337 181Q328 153 323.50 133.50Q319 114 318 101.50Q317 89 317 80Q317 25 346.50-2.50Q376-30 421-30Q443-30 461-20.50Q479-11 495 11.50Q511 34 525 71Q539 108 553 162L633 486Q643 527 652 553Q661 579 671.50 593.50Q682 608 695.50 613Q709 618 729 618Q751 618 768 603Q785 588 785 565M306 507Q306 565 284.50 606Q263 647 221 665Q195 648 174.50 622Q154 596 139.50 566Q125 536 117 503.50Q109 471 109 442Q109 390 128.50 357Q148 324 184 324Q205 324 226.50 338.50Q248 353 265.50 378Q283 403 294.50 436.50Q306 470 306 507Z"  horiz-adv-x="656" vert-adv-y="1000"  />

      
      <glyph glyph-name="uni57" unicode="&#x57;" d="M1196 565Q1196 546 1187 546Q1179 546 1179 569Q1179 578 1169 590Q1159 602 1141 602Q1124 602 1112.50 597Q1101 592 1092 577Q1083 562 1075 535Q1067 508 1056 464L999 235Q981 161 962.50 102Q944 43 920 2Q896-39 862.50-61.50Q829-84 781-84Q748-84 722.50-73.50Q697-63 678-45.50Q659-28 646-4Q633 20 624 47Q573-22 516-65Q459-108 401-108Q368-108 344.50-96.50Q321-85 305.50-66.50Q290-48 283-25Q276-2 276 22Q276 34 278 48.50Q280 63 288 88.50Q296 114 312 154.50Q328 195 356 260L394 347Q401 364 408 386.50Q415 409 420 433Q425 457 428 481.50Q431 506 431 529Q431 561 420.50 590Q410 619 392 641Q374 663 350.50 676Q327 689 300 689Q271 689 246 677Q282 658 305.50 617.50Q329 577 329 511Q329 473 317.50 436.50Q306 400 286.50 371.50Q267 343 240.50 325.50Q214 308 184 308Q141 308 119.50 345Q98 382 98 442Q98 470 105 501.50Q112 533 126 564Q140 595 160.50 623Q181 651 208 671Q197 674 186 676Q175 678 163 678Q122 678 90 655Q58 632 36.50 595.50Q15 559 4 514Q-7 469-7 426Q-7 371 17.50 322.50Q42 274 75 238Q82 231 82 227Q82 222 80.50 218.50Q79 215 74 215Q71 215 55.50 231Q40 247 22.50 275Q5 303-9.50 341.50Q-24 380-24 424Q-24 471-13 519Q-2 567 21 606Q44 645 80.50 669.50Q117 694 167 694Q183 694 198 692Q213 690 227 685Q264 706 311 706Q357 706 385 689Q413 672 428 646.50Q443 621 448 590.50Q453 560 453 533Q453 512 446.50 462.50Q440 413 411 345L379 270Q351 204 335 159.50Q319 115 319 81Q319 26 350.50-2Q382-30 427-30Q482-30 529-1Q576 28 616 76Q607 114 604 152.50Q601 191 601 224Q601 267 604.50 313Q608 359 615.50 402.50Q623 446 634.50 485Q646 524 662 553.50Q678 583 698.50 600Q719 617 745 617Q770 617 784 607Q798 597 805 583.50Q812 570 813.50 556Q815 542 815 535Q815 491 802 434Q789 377 766.50 315.50Q744 254 712 191.50Q680 129 643 74Q665 28 701.50 13Q738-2 785-2Q828-2 858.50 11.50Q889 25 911.50 56.50Q934 88 952 139.50Q970 191 989 266L1044 486Q1054 527 1063 553Q1072 579 1082.50 593.50Q1093 608 1106.50 613Q1120 618 1140 618Q1161 618 1178.50 603Q1196 588 1196 565M798 533Q798 573 781.50 586.50Q765 600 747 600Q721 600 698 571Q675 542 657 492Q639 442 628.50 373.50Q618 305 618 227Q618 186 622 154Q626 122 634 98Q674 151 704.50 214.50Q735 278 756 339Q777 400 787.50 452Q798 504 798 533M312 507Q312 565 290.50 606Q269 647 227 665Q201 648 180.50 622Q160 596 145.50 566Q131 536 123 503.50Q115 471 115 442Q115 390 134.50 357Q154 324 190 324Q211 324 232.50 338.50Q254 353 271.50 378Q289 403 300.50 436.50Q312 470 312 507Z"  horiz-adv-x="1067" vert-adv-y="1000"  />

      
      <glyph glyph-name="uni58" unicode="&#x58;" d="M851 634Q851 628 849.50 620Q848 612 843 612Q834 612 834 632Q834 644 824 653Q814 662 787 662Q750 662 710.50 641Q671 620 633.50 584Q596 548 562 499Q528 450 502.50 393.50Q477 337 462 275.50Q447 214 447 154Q447 88 467.50 51.50Q488 15 515.50-2.50Q543-20 569.50-23.50Q596-27 608-27Q657-27 695-9Q733 9 759.50 39Q786 69 799.50 107.50Q813 146 813 187Q813 226 802 253Q791 280 774.50 296.50Q758 313 738 320Q718 327 701 327Q669 327 646.50 309.50Q624 292 609 266.50Q594 241 587 212Q580 183 580 160Q580 138 586 124Q592 110 601 102Q610 94 619.50 91Q629 88 637 88Q648 88 661 91Q674 94 685 100Q688 102 691 104Q694 106 696 106Q704 106 704 96Q704 93 697 89Q690 85 680 81.50Q670 78 659 75Q648 72 639 72Q625 72 611 76Q597 80 586.50 90.50Q576 101 569.50 119Q563 137 563 165Q563 193 572 224Q581 255 598.50 281.50Q616 308 642 325.50Q668 343 701 343Q757 343 793.50 301.50Q830 260 830 191Q830 168 826 137Q822 106 812 72.50Q802 39 786.50 7Q771-25 748-50.50Q725-76 694-92Q663-108 623-108Q564-108 527-83Q490-58 468-20Q446 18 438 62.50Q430 107 430 146Q430 157 431 172Q432 187 434 206Q426 189 411 160Q396 131 374 97.50Q352 64 324 29Q296-6 261-34Q226-62 184.50-80Q143-98 95-98Q59-98 33-87.50Q7-77-9.50-62.50Q-26-48-33.50-32Q-41-16-41-5Q-41 4-39.50 10.50Q-38 17-33 17Q-25 17-25-1Q-25-7-20-20.50Q-15-34-1.50-47.50Q12-61 35-71.50Q58-82 94-82Q146-82 194-56.50Q242-31 283.50 10.50Q325 52 359.50 105Q394 158 418 213Q442 268 455.50 320Q469 372 469 412Q469 443 466 476Q463 509 453.50 536.50Q444 564 425.50 583Q407 602 376 605Q381 592 382 578Q383 564 383 549Q383 522 372.50 491Q362 460 344 433.50Q326 407 301.50 389.50Q277 372 249 372Q229 372 214.50 390Q200 408 200 432Q200 468 213.50 500Q227 532 249 557.50Q271 583 297 600Q323 617 349 621Q335 639 310 650.50Q285 662 243 662Q197 662 159.50 646Q122 630 92 604.50Q62 579 37.50 546Q13 513-8 480Q-19 462-24 462Q-33 462-33 473Q-33 475-24.50 490.50Q-16 506 0.50 529Q17 552 41 578Q65 604 95.50 626.50Q126 649 162.50 663.50Q199 678 241 678Q294 678 325 662Q356 646 369 622Q384 622 404.50 615Q425 608 443.50 588Q462 568 474.50 532Q487 496 487 438Q487 425 486.50 416.50Q486 408 486 398Q526 483 568.50 537.50Q611 592 651.50 623Q692 654 729 666Q766 678 795 678Q812 678 823 672Q834 666 840 658.50Q846 651 848.50 644Q851 637 851 634M367 557Q367 585 358 606Q339 604 314.50 590Q290 576 268.50 553.50Q247 531 232 501Q217 471 217 438Q217 417 227 402.50Q237 388 251 388Q270 388 291 403.50Q312 419 328.50 443Q345 467 356 497Q367 527 367 557Z"  horiz-adv-x="887" vert-adv-y="1000"  />

      
      <glyph glyph-name="uni59" unicode="&#x59;" d="M876 640Q876 632 874.50 620Q873 608 870 596L736 100Q709-1 687-60.50Q665-120 641-150.50Q617-181 587-190Q557-199 514-199Q478-199 456-185.50Q434-172 422-155Q410-138 406.50-122.50Q403-107 403-102Q403-93 404.50-90Q406-87 410-87Q420-87 420-102Q420-108 424.50-121.50Q429-135 440.50-148.50Q452-162 472-172.50Q492-183 522-183Q560-183 586.50-170Q613-157 634-125.50Q655-94 673.50-42.50Q692 9 713 86L857 609Q859 618 860.50 624Q862 630 862 637Q862 643 858 643Q856 643 853 635.50Q850 628 845 616L714 257Q690 190 665 142Q640 94 610.50 63.50Q581 33 546 18.50Q511 4 466 4Q428 4 401.50 18Q375 32 357.50 53.50Q340 75 332 101Q324 127 324 152Q324 170 325.50 185.50Q327 201 333 221Q339 241 351 270Q363 299 383 343L412 407Q422 430 427.50 458.50Q433 487 433 532Q433 563 422.50 591Q412 619 394 639Q376 659 352 671Q328 683 301 683Q266 683 235 669Q274 652 297.50 613Q321 574 321 510Q321 472 309 436Q297 400 277 371Q257 342 229 324.50Q201 307 170 307Q127 307 105.50 343.50Q84 380 84 439Q84 468 90.50 499.50Q97 531 110 561Q123 591 143 617.50Q163 644 189 664Q183 665 177 665.50Q171 666 164 666Q124 666 92.50 644.50Q61 623 39 588.50Q17 554 5 510.50Q-7 467-7 423Q-7 367 7.50 326.50Q22 286 53 243Q59 234 59 230Q59 223 54 223Q51 223 38 236.50Q25 250 11.50 275Q-2 300-13 336.50Q-24 373-24 419Q-24 468-12 515Q0 562 24 599Q48 636 84 659Q120 682 168 682Q179 682 189 681Q199 680 209 678Q254 706 312 706Q358 706 386 689.50Q414 673 429 648Q444 623 449 593Q454 563 454 536Q454 519 453.50 504.50Q453 490 450 474.50Q447 459 441.50 441Q436 423 426 401L395 331Q381 299 377.50 275Q374 251 374 219Q374 192 383.50 166.50Q393 141 411 121Q429 101 453.50 89Q478 77 508 77Q524 77 546.50 81.50Q569 86 593 103Q617 120 642 154Q667 188 690 247L823 598Q836 633 843.50 647Q851 661 862 661Q870 661 873 654.50Q876 648 876 640M304 506Q304 560 283.50 602Q263 644 215 659Q188 643 167 618.50Q146 594 131.50 564.50Q117 535 109 502.50Q101 470 101 439Q101 388 120.50 355.50Q140 323 176 323Q198 323 220.50 338Q243 353 261.50 378Q280 403 292 436Q304 469 304 506Z"  horiz-adv-x="824" vert-adv-y="1000"  />

      
      <glyph glyph-name="uni5a" unicode="&#x5a;" d="M838 631Q838 611 821.50 580Q805 549 777 514Q749 479 713.50 443Q678 407 641 376Q624 338 606.50 303.50Q589 269 573 238.50Q557 208 542.50 183Q528 158 518 140Q507 121 495 103Q483 85 471 68Q503 45 533.50 23.50Q564 2 599-24Q616-36 636.50-44.50Q657-53 674-53Q696-53 713.50-34.50Q731-16 743 8.50Q755 33 761 57Q767 81 767 93Q767 110 774 110Q782 110 782 93Q782 88 779.50 72Q777 56 770.50 35Q764 14 753-9.50Q742-33 724.50-52.50Q707-72 682.50-85Q658-98 626-98Q593-98 567.50-87.50Q542-77 504-51L422 4Q379-46 328-77Q277-108 209-108Q144-108 110.50-76Q77-44 77 2Q77 27 89.50 51.50Q102 76 126 95.50Q150 115 184 127Q218 139 262 139Q304 139 350 125.50Q396 112 456 77Q467 94 479 111Q491 128 502 147Q518 175 532.50 200.50Q547 226 560 250.50Q573 275 585.50 300.50Q598 326 612 354Q575 322 539.50 305.50Q504 289 478 289Q442 289 426.50 311Q411 333 411 365Q411 388 416 405Q421 422 426 438Q431 455 433.50 475.50Q436 496 436 529Q436 558 425 585.50Q414 613 395 635Q376 657 352 670Q328 683 301 683Q283 683 267 679Q251 675 236 668Q275 651 298 612Q321 573 321 507Q321 468 309 430.50Q297 393 276.50 364Q256 335 229 317.50Q202 300 172 300Q129 300 106.50 337Q84 374 84 434Q84 464 90.50 495.50Q97 527 110.50 557.50Q124 588 144 615.50Q164 643 190 663Q184 664 177.50 664.50Q171 665 164 665Q124 665 92.50 643.50Q61 622 39 586.50Q17 551 5 507Q-7 463-7 418Q-7 364 8 319.50Q23 275 52 237Q59 226 59 224Q59 221 58 218Q57 215 54 215Q50 215 37 229Q24 243 10.50 269Q-3 295-13.50 332Q-24 369-24 414Q-24 463-12 511.50Q0 560 24 597.50Q48 635 84 658.50Q120 682 168 682Q187 682 209 677Q231 691 257 698.50Q283 706 312 706Q358 706 386.50 689Q415 672 431 646.50Q447 621 452 590.50Q457 560 457 533Q457 504 452.50 480.50Q448 457 443 440Q438 424 435.50 413Q433 402 431 393.50Q429 385 428.50 377.50Q428 370 428 361Q428 352 430.50 342Q433 332 439 323.50Q445 315 454.50 310Q464 305 478 305Q504 305 543.50 326.50Q583 348 625 385L645 436Q666 488 684.50 531Q703 574 722 604Q741 634 761 650.50Q781 667 805 667Q822 667 830 655.50Q838 644 838 631M821 631Q821 651 805 651Q773 651 741 598.50Q709 546 667 443L653 409Q686 438 716 471Q746 504 769.50 534.50Q793 565 807 590.50Q821 616 821 631M304 503Q304 558 284 599.50Q264 641 216 657Q189 640 168 615.50Q147 591 132 561Q117 531 109 498.50Q101 466 101 434Q101 382 120.50 349Q140 316 176 316Q195 316 217.50 330.50Q240 345 259 370Q278 395 291 429.50Q304 464 304 503M408 12Q351 49 304 67.50Q257 86 207 86Q174 86 152 77Q130 68 117 54.50Q104 41 98.50 24Q93 7 93-8Q93-17 98.50-31Q104-45 117-58.50Q130-72 152-82Q174-92 206-92Q270-92 317.50-65Q365-38 408 12Z"  horiz-adv-x="820" vert-adv-y="1000"  />

      
      <glyph glyph-name="uni60" unicode="&#x60;" d="M239 305Q239 299 230 299Q228 299 211.50 303.50Q195 308 176 316Q157 324 142 336Q127 348 127 362Q127 372 133 378Q139 384 147 384Q158 384 165 378Q172 372 180 357Q192 336 202.50 327Q213 318 228 313Q239 310 239 305Z"  horiz-adv-x="333" vert-adv-y="1000"  />

      
      <glyph glyph-name="uni61" unicode="&#x61;" d="M180 48Q179 43 178.50 37.50Q178 32 178 29Q178 16 203 16Q211 16 213 14.50Q215 13 215 8Q215 0 205 0L164 0Q152 0 140.50 6.50Q129 13 129 33Q129 45 133 60L171 211Q139 140 118.50 97Q98 54 83 31Q68 8 54.50 0.50Q41-7 25-7Q11-7 5.50 4.50Q0 16 0 27Q0 33 1.50 40.50Q3 48 8 68L43 201Q52 236 75.50 250Q99 264 147 264Q166 264 186.50 263Q207 262 231 261L180 48M170 243Q170 253 147 253Q121 253 110 239.50Q99 226 94 208Q82 163 73 127Q69 112 65 97Q61 82 58 70Q55 58 53 50Q51 42 51 41Q49 36 50 31.50Q51 27 55 27Q60 27 65.50 31.50Q71 36 82.50 55.50Q94 75 113.50 115.50Q133 156 166 228Q170 236 170 243Z"  horiz-adv-x="267" vert-adv-y="1000"  />

      
      <glyph glyph-name="uni63" unicode="&#x63;" d="M197 204Q197 195 193.50 182Q190 169 183 156.50Q176 144 165 135.50Q154 127 139 127Q118 127 112 137Q106 147 106 153Q106 164 114.50 172Q123 180 138 180Q149 180 157 172Q160 169 163 169Q171 169 176 181.50Q181 194 181 205Q181 231 168 240.50Q155 250 137 250Q122 250 107.50 236.50Q93 223 83 176L65 97Q60 77 58 60.50Q56 44 56 36Q56 28 66 22Q76 16 103 16L148 16Q168 16 168 9Q168 6 167 4.50Q166 3 159.50 1.50Q153 0 140-0.50Q127-1 103-1Q74-1 55.50 1Q37 3 26 8.50Q15 14 10.50 23.50Q6 33 6 48Q6 62 11 89.50Q16 117 30 169Q44 223 69 244.50Q94 266 132 266Q162 266 179.50 248.50Q197 231 197 204Z"  horiz-adv-x="229" vert-adv-y="1000"  />

      
      <glyph glyph-name="uni64" unicode="&#x64;" d="M182 49Q179 35 179 29Q179 22 184.50 19Q190 16 205 16Q213 16 215 14.50Q217 13 217 8Q217 0 207 0L166 0Q152 0 141 7.50Q130 15 130 32Q130 38 131 45Q132 52 134 60L171 210Q139 139 118.50 96Q98 53 83 30Q68 7 54.50 0Q41-7 25-7Q14-7 7 4.50Q0 16 0 27Q0 35 3.50 49Q7 63 15 92L43 201Q52 236 75.50 249.50Q99 263 147 263Q156 263 164 262.50Q172 262 182 261L283 686L334 686L182 49M166 228Q172 241 169.50 246.50Q167 252 147 252Q121 252 110 239Q99 226 94 208Q82 163 73 127Q69 112 65 97Q61 82 58 70Q55 58 53 50Q51 42 51 41Q50 39 50 35Q50 27 56 27Q60 27 66 31.50Q72 36 83 55.50Q94 75 113.50 115.50Q133 156 166 228Z"  horiz-adv-x="269" vert-adv-y="1000"  />

      
      <glyph glyph-name="uni65" unicode="&#x65;" d="M181 206Q181 181 168 159Q155 137 136 121Q117 105 96.50 95.50Q76 86 61 86Q58 73 56 58Q54 43 54 36Q54 24 66.50 20Q79 16 102 16L125 16Q145 16 145 9Q145 2 137.50 0.50Q130-1 102-1Q73-1 54.50 1Q36 3 25 8.50Q14 14 10 23.50Q6 33 6 48Q6 53 7 61.50Q8 70 10.50 83.50Q13 97 17 118Q21 139 28 169Q40 224 64.50 245Q89 266 123 266Q181 266 181 206M145 207Q145 232 139 241Q133 250 120 250Q103 250 94.50 234Q86 218 78 176L63 102Q78 102 93 112Q108 122 119.50 137Q131 152 138 170.50Q145 189 145 207Z"  horiz-adv-x="207" vert-adv-y="1000"  />

      
      <glyph glyph-name="uni66" unicode="&#x66;" d="M249 678Q249 670 234 670Q217 670 210 658Q203 646 194 608L112 261L146 261Q164 261 164 251Q164 244 159.50 238.50Q155 233 143 233L105 233L2-200L-50-200L53 233L38 233Q20 233 20 244Q20 251 24.50 256Q29 261 41 261L59 261L144 618Q151 648 167.50 667Q184 686 220 686Q237 686 243 684.50Q249 683 249 678Z"  horiz-adv-x="146" vert-adv-y="1000"  />

      
      <glyph glyph-name="uni67" unicode="&#x67;" d="M141-121Q129-171 102.50-189Q76-207 45-207Q20-207 5-191.50Q-10-176-10-156Q-10-135 0.50-123Q11-111 25-111Q40-111 47-120.50Q54-130 54-138Q54-149 46-159Q38-169 27-169Q22-169 18-167.50Q14-166 12-166Q8-166 8-172Q8-178 15.50-186Q23-194 34-194Q57-194 68-178.50Q79-163 89-122L174 226Q137 144 114.50 97.50Q92 51 77 27.50Q62 4 51.50-1.50Q41-7 28-7Q14-7 7 3.50Q0 14 0 26Q0 30 2 41Q4 52 10 77L33 168Q41 201 51 220Q61 239 74.50 248.50Q88 258 106 261Q124 264 148 264Q168 264 192 263Q216 262 232 261L141-121M165 240Q165 249 143 249Q117 249 108.50 240.50Q100 232 94 209L52 46Q51 43 51 39Q51 32 56 32Q60 32 65 36Q70 40 80.50 59Q91 78 110 117.50Q129 157 162 227Q164 232 164.50 235Q165 238 165 240Z"  horiz-adv-x="256" vert-adv-y="1000"  />

      
      <glyph glyph-name="uni68" unicode="&#x68;" d="M239 228Q239 225 236.50 213.50Q234 202 230 185.50Q226 169 221 149Q216 129 211 108Q199 60 184 1Q181-12 165-32Q149-52 131-71Q113-90 97.50-103.50Q82-117 79-117Q71-117 71-108Q71-103 77-99Q89-90 97.50-80Q106-70 114-53.50Q122-37 130-10.50Q138 16 149 60L185 210Q186 213 187 217Q189 225 189 230Q189 241 181 241Q177 241 172 236Q167 231 154 208Q141 185 117.50 136.50Q94 88 53 0L2 0L164 686L214 686L67 59Q101 134 122 176.50Q143 219 156.50 239Q170 259 179.50 263.50Q189 268 202 268Q222 268 230.50 253Q239 238 239 228Z"  horiz-adv-x="274" vert-adv-y="1000"  />

      
      <glyph glyph-name="uni69" unicode="&#x69;" d="M140 325Q140 312 131.50 303.50Q123 295 110 295Q97 295 88.50 303.50Q80 312 80 325Q80 338 88.50 346.50Q97 355 110 355Q123 355 131.50 346.50Q140 338 140 325M118 237Q118 228 112 201L64 0L14 0L61 195Q67 220 67 232Q67 239 63 242Q59 245 46 245Q38 245 36 246.50Q34 248 34 253Q34 257 39 259Q44 261 49 261L89 261Q118 261 118 237Z"  horiz-adv-x="160" vert-adv-y="1000"  />

      
      <glyph glyph-name="uni6a" unicode="&#x6a;" d="M136 325Q136 312 127.50 303.50Q119 295 106 295Q93 295 84.50 303.50Q76 312 76 325Q76 338 84.50 346.50Q93 355 106 355Q119 355 127.50 346.50Q136 338 136 325M114 235Q114 223 108 201L40-83Q32-118 7.50-147.50Q-17-177-47-198Q-52-202-58-202Q-64-202-64-194Q-64-189-58-183Q-50-175-43.50-167Q-37-159-31-147.50Q-25-136-20-120Q-15-104-9-80L57 195Q61 212 62 219.50Q63 227 63 232Q63 239 59 242Q55 245 42 245Q34 245 32 246.50Q30 248 30 253Q30 257 35 259Q40 261 45 261L85 261Q102 261 108 254Q114 247 114 235Z"  horiz-adv-x="156" vert-adv-y="1000"  />

      
      <glyph glyph-name="uni6b" unicode="&#x6b;" d="M238 6Q238 1 232.50 0Q227-1 208-1Q181-1 167 4.50Q153 10 142 25Q134 36 127.50 51Q121 66 117 77Q108 100 101 104Q99 101 92.50 87Q86 73 78.50 56.50Q71 40 64 23.50Q57 7 54 0L2 0L165 686L217 686L70 67Q94 125 111.50 164Q129 203 143.50 226Q158 249 170.50 258.50Q183 268 197 268Q218 268 228 256Q238 244 238 231Q238 217 233.50 198.50Q229 180 219 162Q209 144 192.50 129.50Q176 115 153 110Q161 96 167.50 83.50Q174 71 182 55Q194 30 202 21.50Q210 13 220 13Q231 13 234.50 12Q238 11 238 6M185 229Q185 244 180 244Q175 244 166 230Q157 216 146 196.50Q135 177 124.50 156Q114 135 107 120Q110 119 114.50 118Q119 117 122 117Q142 117 149 121Q156 125 161 133Q164 137 168 150Q172 163 176 178Q180 193 182.50 207Q185 221 185 229Z"  horiz-adv-x="275" vert-adv-y="1000"  />

      
      <glyph glyph-name="uni6c" unicode="&#x6c;" d="M13 43Q13 48 13.50 54.50Q14 61 17 73L162 686L214 686L69 66Q66 53 65 45.50Q64 38 64 33Q64 24 73.50 20Q83 16 96 16Q104 16 106 14.50Q108 13 108 8Q108 0 85 0Q45 0 29 10.50Q13 21 13 43Z"  horiz-adv-x="162" vert-adv-y="1000"  />

      
      <glyph glyph-name="uni6d" unicode="&#x6d;" d="M371 227Q371 220 365 194.50Q359 169 351 140Q342 107 332 65Q326 39 326 28Q326 20 330 17.50Q334 15 345 15Q362 15 362 7Q362 2 357 1Q352 0 347 0L320 0Q292 0 283.50 10.50Q275 21 275 31Q275 36 277 42Q279 48 281 59L317 209Q318 212 319 216Q321 224 321 229Q321 240 312 240Q307 240 300.50 236Q294 232 280.50 209Q267 186 243.50 137.50Q220 89 181 0L125 0L186 210Q188 216 188.50 220Q189 224 189 230Q189 241 181 241Q177 241 172 236Q167 231 154 208Q141 185 117.50 136.50Q94 88 53 0L2 0L64 261L114 261L67 59Q101 134 121 176Q141 218 155 238.50Q169 259 180.50 263.50Q192 268 207 268Q227 268 233 253Q239 238 239 228Q239 221 231 193Q223 165 214 133Q203 96 190 51Q223 127 243.50 170Q264 213 279 234.50Q294 256 306 261.50Q318 267 334 267Q354 267 362.50 252Q371 237 371 227Z"  horiz-adv-x="417" vert-adv-y="1000"  />

      
      <glyph glyph-name="uni6e" unicode="&#x6e;" d="M240 8Q240 4 235 2Q230 0 225 0L188 0Q160 0 151.50 11Q143 22 143 32Q143 37 145 43Q147 49 149 60L185 210Q186 213 187 217Q189 225 189 230Q189 241 181 241Q177 241 172 236Q167 231 154 208Q141 185 117.50 136.50Q94 88 53 0L2 0L64 261L114 261L67 59Q101 134 122 176.50Q143 219 156.50 239Q170 259 179.50 263.50Q189 268 202 268Q222 268 230.50 253Q239 238 239 228Q239 221 233 195.50Q227 170 219 141Q210 108 200 66Q194 40 194 29Q194 22 200 19Q206 16 228 16Q236 16 238 14.50Q240 13 240 8Z"  horiz-adv-x="286" vert-adv-y="1000"  />

      
      <glyph glyph-name="uni6f" unicode="&#x6f;" d="M208 224Q208 208 204 189Q198 158 190 125.50Q182 93 176 70Q168 38 148 16.50Q128-5 85-5Q48-5 27 10.50Q6 26 6 51Q6 63 8.50 81.50Q11 100 14.50 120Q18 140 22.50 159Q27 178 32 190Q40 212 49.50 227Q59 242 72 250.50Q85 259 103.50 262.50Q122 266 148 266Q182 266 195 251Q208 236 208 224M192 225Q192 235 180 243Q168 251 150 251Q120 251 107.50 234.50Q95 218 88 190L58 60Q57 55 56.50 50Q56 45 56 40Q56 26 63.50 18.50Q71 11 89 11Q107 11 120.50 16.50Q134 22 143.50 37Q153 52 160.50 77Q168 102 176 141Q162 147 159 155Q156 163 156 174Q156 184 164.50 193Q173 202 190 207Q191 212 191.50 216.50Q192 221 192 225Z"  horiz-adv-x="242" vert-adv-y="1000"  />

      
      <glyph glyph-name="uni70" unicode="&#x70;" d="M230 236Q230 221 228.50 211.50Q227 202 223 186L185 35Q179 12 171 2.50Q163-7 148-7Q137-7 119.50 3.50Q102 14 71 43Q57 15 50.50-8Q44-31 36-60L1-200L-51-200L74 325L126 325L58 41Q94 120 115 165.50Q136 211 150 233Q164 255 175 260.50Q186 266 201 266Q214 266 222 257Q230 248 230 236M180 225Q180 231 173 231Q168 231 163.50 227Q159 223 149.50 205.50Q140 188 123 152.50Q106 117 78 55Q88 46 99 36Q110 26 115 26Q121 26 126 29.50Q131 33 136 50L178 214Q180 222 180 225Z"  horiz-adv-x="260" vert-adv-y="1000"  />

      
      <glyph glyph-name="uni71" unicode="&#x71;" d="M122-200L70-200L174 226Q137 144 114.50 97.50Q92 51 77 27.50Q62 4 51.50-1.50Q41-7 28-7Q14-7 7 3.50Q0 14 0 26Q0 30 2 41Q4 52 10 77L33 168Q41 201 51 220Q61 239 74.50 248.50Q88 258 106 261Q124 264 148 264Q168 264 192 263Q216 262 232 261L122-200M166 240Q166 249 143 249Q117 249 108 239.50Q99 230 94 209L53 46Q52 43 52 39Q52 32 56 32Q60 32 65 36Q70 40 80.50 59Q91 78 110 117.50Q129 157 162 227Q166 235 166 240Z"  horiz-adv-x="256" vert-adv-y="1000"  />

      
      <glyph glyph-name="uni72" unicode="&#x72;" d="M202 256Q202 250 200.50 239.50Q199 229 195 219Q191 209 183 202Q175 195 163 195Q157 195 150.50 198Q144 201 138.50 209Q133 217 129 230.50Q125 244 125 264Q125 294 132 294Q137 294 137 285Q137 253 144.50 245Q152 237 165 237Q176 237 183 241.50Q190 246 193 258Q195 267 198 267Q202 267 202 256M52 0L2 0L64 261L114 261L52 0Z"  horiz-adv-x="199" vert-adv-y="1000"  />

      
      <glyph glyph-name="uni73" unicode="&#x73;" d="M220 133Q220 104 209 79Q198 54 179 35Q160 16 134.50 5.50Q109-5 81-5Q43-5 22.50 14.50Q2 34 2 65Q2 81 8 95Q14 109 24 119Q34 129 46.50 135Q59 141 72 141Q96 141 108 128Q120 115 120 101Q120 82 109 73.50Q98 65 87 65Q76 65 70 73.50Q64 82 64 91Q64 100 69.50 107.50Q75 115 79 117Q83 119 84.50 119.50Q86 120 86 123Q86 127 76 127Q53 127 35.50 107.50Q18 88 18 62Q18 45 30.50 27.50Q43 10 71 10Q87 10 104 21Q121 32 135 51.50Q149 71 158 97Q167 123 167 154Q167 179 155 201Q143 223 107 248Q101 237 91 224Q81 211 71 199.50Q61 188 53.50 180Q46 172 43 172Q35 172 35 180Q35 182 41 188Q80 227 90 245.50Q100 264 100 268Q100 274 99 281.50Q98 289 98 294Q98 306 103 314.50Q108 323 114 323Q119 323 122 317.50Q125 312 125 307Q125 302 120.50 292.50Q116 283 114 278Q113 276 112 272.50Q111 269 111 267Q111 257 130 246Q161 228 179 213Q197 198 206 184.50Q215 171 217.50 158Q220 145 220 133Z"  horiz-adv-x="264" vert-adv-y="1000"  />

      
      <glyph glyph-name="uni74" unicode="&#x74;" d="M175 251Q175 244 172 238.50Q169 233 159 233L113 233L74 70Q71 57 70 48.50Q69 40 69 33Q69 21 80.50 16Q92 11 119 11Q134 11 134 3Q134-1 127-2Q120-3 115-3Q64-3 42 6.50Q20 16 20 43Q20 50 24 69L63 233L49 233Q31 233 31 244Q31 251 34.50 256Q38 261 46 261L70 261L100 386L150 386L120 261L157 261Q168 261 171.50 258.50Q175 256 175 251Z"  horiz-adv-x="184" vert-adv-y="1000"  />

      
      <glyph glyph-name="uni75" unicode="&#x75;" d="M194 66Q188 40 188 29Q188 21 192 18.50Q196 16 211 16Q219 16 226 14.50Q233 13 233 8Q233 4 228 2Q223 0 218 0L172 0Q137 0 137 31Q137 37 139.50 45.50Q142 54 144 65L177 202Q143 126 120.50 84Q98 42 82.50 21.50Q67 1 55.50-3Q44-7 31-7Q15-7 8.50 5Q2 17 2 27Q2 30 3 37Q4 44 7 55L60 261L110 261L58 58Q54 43 54 38Q54 27 61 27Q65 27 71 31.50Q77 36 90.50 58.50Q104 81 127.50 128.50Q151 176 190 261L241 261L194 66Z"  horiz-adv-x="277" vert-adv-y="1000"  />

      
      <glyph glyph-name="uni76" unicode="&#x76;" d="M260 231Q260 217 253 206.50Q246 196 232 196Q220 196 211.50 204Q203 212 203 221Q203 228 205 232Q209 238 209 241Q209 243 208 245Q207 247 205 247Q200 247 195.50 242.50Q191 238 185.50 220.50Q180 203 173 169Q166 135 156 76Q152 51 145 35.50Q138 20 128 11Q118 2 105-1.50Q92-5 76-5Q46-5 24 9Q2 23 2 42Q2 48 3 56Q4 64 7 76L51 261L101 261L55 70Q51 54 50 45.50Q49 37 49 33Q49 20 60 15.50Q71 11 82 11Q107 11 120 26Q133 41 138 64L162 186Q170 224 183.50 245Q197 266 227 266Q240 266 250 254Q260 242 260 231Z"  horiz-adv-x="255" vert-adv-y="1000"  />

      
      <glyph glyph-name="uni77" unicode="&#x77;" d="M394 231Q394 217 387 206.50Q380 196 366 196Q354 196 345.50 204Q337 212 337 221Q337 228 339 232Q343 238 343 241Q343 243 342 245Q341 247 339 247Q334 247 329.50 242.50Q325 238 319.50 220.50Q314 203 307 169Q300 135 290 76Q286 51 279 35.50Q272 20 262 11Q252 2 239-1.50Q226-5 210-5Q180-5 161 9Q142 23 142 42Q142 53 147 76L177 202Q143 126 120.50 84Q98 42 82.50 21.50Q67 1 55.50-3Q44-7 31-7Q15-7 8.50 5Q2 17 2 27Q2 30 3 37Q4 44 7 55L60 261L110 261L58 58Q54 43 54 38Q54 27 61 27Q65 27 71 31.50Q77 36 90.50 58.50Q104 81 127.50 128.50Q151 176 190 261L241 261L195 70Q189 44 189 33Q189 25 197 18Q205 11 216 11Q241 11 254 26Q267 41 272 64L296 186Q304 224 317.50 245Q331 266 361 266Q374 266 384 254Q394 242 394 231Z"  horiz-adv-x="389" vert-adv-y="1000"  />

      
      <glyph glyph-name="uni78" unicode="&#x78;" d="M237 219Q237 191 227.50 171Q218 151 214 151Q202 151 202 164Q202 169 205 174Q213 186 217 200.50Q221 215 221 222Q221 232 215 242.50Q209 253 196 253Q185 253 172 243Q159 233 156 220L116 53Q113 42 113 31Q113 20 122.50 14.50Q132 9 143 9Q154 9 162 15Q170 21 175.50 31Q181 41 184.50 52Q188 63 191 74Q193 80 199 80Q203 80 203 70Q203 68 200.50 56Q198 44 191 30.50Q184 17 173 6Q162-5 146-5Q131-5 118.50 2Q106 9 99 25Q86 10 64.50 2.50Q43-5-1-5Q-11-5-13.50-3Q-16-1-16 4Q-16 8-1 8Q26 8 42 15Q58 22 63 42L101 198Q103 204 103 208.50Q103 213 103 218Q103 235 95.50 241Q88 247 80 247Q59 247 46.50 228Q34 209 29 180Q28 175 27.50 171.50Q27 168 23 168Q15 168 15 176Q15 185 19 200Q23 215 31.50 229.50Q40 244 54 254.50Q68 265 88 265Q105 265 119 259Q133 253 147 235Q156 249 167 257.50Q178 266 200 266Q219 266 228 251Q237 236 237 219Z"  horiz-adv-x="270" vert-adv-y="1000"  />

      
      <glyph glyph-name="uni79" unicode="&#x79;" d="M143-121Q130-171 104-189Q78-207 47-207Q22-207 7-191.50Q-8-176-8-156Q-8-135 2.50-123Q13-111 27-111Q42-111 49-120.50Q56-130 56-138Q56-149 48-159Q40-169 29-169Q24-169 20-167.50Q16-166 14-166Q10-166 10-172Q10-178 17.50-186Q25-194 36-194Q59-194 70-178.50Q81-163 92-122L174 202Q140 126 117.50 84Q95 42 79.50 21.50Q64 1 52.50-3Q41-7 28-7Q12-7 5.50 5Q-1 17-1 27Q-1 30 0 36Q1 42 4 55L57 261L107 261L55 58Q51 43 51 38Q51 27 58 27Q62 27 68 31.50Q74 36 87.50 58.50Q101 81 124.50 128.50Q148 176 187 261L238 261L143-121Z"  horiz-adv-x="262" vert-adv-y="1000"  />

      
      <glyph glyph-name="uni7a" unicode="&#x7a;" d="M249 269Q249 265 245 261Q227 243 203 216.50Q179 190 153 161.50Q127 133 102 104Q77 75 57 52Q70 55 83.50 57.50Q97 60 111 60Q133 60 160 45Q170 40 177 40Q197 40 199 82Q199 88 201 92.50Q203 97 207 97Q215 97 215 88Q215 86 212.50 71Q210 56 203 39Q196 22 183.50 8.50Q171-5 152-5Q138-5 121-0.50Q104 4 81 13Q69 18 57 18Q37 18 24.50 12Q12 6 1-7Q-2-11-5.50-14Q-9-17-12-17Q-15-17-17-13.50Q-19-10-19-7Q-19 3-11 7Q3 15 12.50 23Q22 31 36 47Q73 91 107.50 131Q142 171 180 210Q172 206 159.50 203.50Q147 201 139 201Q125 201 109 207Q93 213 80 221Q72 226 65 226Q54 226 46.50 214.50Q39 203 35 165Q34 152 26 152Q19 152 19 159Q19 164 22.50 181.50Q26 199 33.50 217.50Q41 236 52.50 251Q64 266 80 266Q95 266 108 259Q135 244 148.50 239Q162 234 172 234Q201 234 231 268Q239 276 244 276Q249 276 249 269Z"  horiz-adv-x="256" vert-adv-y="1000"  />

      
      <glyph glyph-name="unia2" unicode="&#xa2;" d="M279 391Q279 360 264 340Q249 320 219 320Q209 320 200 325.50Q191 331 188 337L137 144Q143 142 149.50 141Q156 140 164 140Q181 140 197.50 144Q214 148 227 155Q237 160 239 160Q247 160 247 154Q247 150 239.50 144.50Q232 139 219.50 134.50Q207 130 191 127Q175 124 158 124Q151 124 144.50 124Q138 124 132 125L102 16Q98 0 91 0Q84 0 84 9Q84 11 87 23L115 128Q96 129 80 140Q64 151 53 166Q42 181 35.50 198.50Q29 216 29 230Q29 273 38 315Q47 357 68 390.50Q89 424 122.50 445Q156 466 206 466L220 520Q224 536 231 536Q238 536 238 527Q238 525 238 523Q238 521 236 516L222 463Q245 457 262 438.50Q279 420 279 391M263 392Q263 413 250 428Q237 443 218 448L198 374Q203 378 208.50 379Q214 380 219 380Q230 380 243 369Q245 367 248.50 364.50Q252 362 254 362Q263 362 263 392M202 450Q169 450 146 424.50Q123 399 109 362.50Q95 326 88.50 286.50Q82 247 82 219Q82 189 91.50 172.50Q101 156 121 149L202 450L202 450Z"  horiz-adv-x="279" vert-adv-y="1000"  />

      
      <glyph glyph-name="unia9" unicode="&#xa9;" d="M401 228Q401 225 398.50 213.50Q396 202 392 185.50Q388 169 383 149Q378 129 373 108Q361 60 346 1Q343-12 327-32Q311-52 293-71Q275-90 259.50-103.50Q244-117 241-117Q233-117 233-108Q233-103 239-99Q251-90 259.50-80Q268-70 276-53.50Q284-37 292-10.50Q300 16 311 60L347 210Q348 213 349 217Q351 225 351 230Q351 241 343 241Q339 241 334 236Q329 231 316 208Q303 185 279.50 136.50Q256 88 215 0L103 0Q74 0 55.50 2Q37 4 26 9Q15 14 10.50 23.50Q6 33 6 48Q6 62 11 89.50Q16 117 30 169Q44 223 69 244.50Q94 266 132 266Q162 266 177 248.50Q192 231 191 204Q191 191 187.50 177.50Q184 164 177.50 152.50Q171 141 161.50 134Q152 127 139 127Q119 127 113.50 137Q108 147 108 153Q108 164 116 172Q124 180 138 180Q141 180 146.50 177.50Q152 175 157 171Q161 169 165 169Q170 169 173 181.50Q176 194 176 205Q176 231 165.50 240.50Q155 250 137 250Q122 250 107.50 236.50Q93 223 83 176L65 97Q60 77 58 60.50Q56 44 56 36Q56 28 66 22.50Q76 17 103 17L168 17L326 686L376 686L229 59Q263 134 284 176.50Q305 219 318.50 239Q332 259 341.50 263.50Q351 268 364 268Q384 268 392.50 253Q401 238 401 228Z"  horiz-adv-x="436" vert-adv-y="1000"  />

      
      <glyph glyph-name="unib4" unicode="&#xb4;" d="M259 362Q259 348 243.50 336Q228 324 209.50 316Q191 308 174.50 303.50Q158 299 156 299Q147 299 147 305Q147 310 158 313Q173 318 183.50 327Q194 336 206 357Q214 372 221 378Q228 384 239 384Q247 384 253 378Q259 372 259 362Z"  horiz-adv-x="333" vert-adv-y="1000"  />

      
      <glyph glyph-name="unia8" unicode="&#xa8;" d="M269 332Q269 320 260 311Q251 302 239 302Q227 302 218 311Q209 320 209 332Q209 344 218 353Q227 362 239 362Q251 362 260 353Q269 344 269 332M171 332Q171 320 162 311Q153 302 141 302Q129 302 120 311Q111 320 111 332Q111 344 120 353Q129 362 141 362Q153 362 162 353Q171 344 171 332Z"  horiz-adv-x="333" vert-adv-y="1000"  />

      
      <glyph glyph-name="unia5" unicode="&#xa5;" d="M1010 603Q1010 586 998.50 574.50Q987 563 970 563Q953 563 941.50 574.50Q930 586 930 603Q930 620 941.50 631.50Q953 643 970 643Q987 643 998.50 631.50Q1010 620 1010 603M1040 640Q1040 626 1036.50 619.50Q1033 613 1029 613Q1025 613 1023.50 618Q1022 623 1022 626Q1022 629 1022.50 637.50Q1023 646 1023 652Q1023 669 1009 681Q995 693 969 693Q947 693 931.50 684.50Q916 676 904 657Q892 638 882 608Q872 578 861 536L788 261L874 261Q879 261 883 260Q886 258 889 255.50Q892 253 892 247Q892 235 885 230Q878 225 870 225L779 225L695-91Q691-107 683-107Q678-107 676-103Q674-99 676-91L760 225L618 225Q597 156 567.50 95.50Q538 35 497-10Q456-55 403.50-81.50Q351-108 285-108Q241-108 196-94.50Q151-81 114.50-51.50Q78-22 55 23Q32 68 32 131Q32 206 56 254.50Q80 303 115.50 331.50Q151 360 192.50 371Q234 382 269 382Q308 382 343 373Q378 364 404.50 345.50Q431 327 447 297.50Q463 268 463 227Q463 194 449 163.50Q435 133 411 110.50Q387 88 354 74.50Q321 61 282 61Q247 61 224 72Q201 83 187 98.50Q173 114 167 132Q161 150 161 165Q161 177 166 194Q171 211 178.50 226.50Q186 242 194.50 252.50Q203 263 210 263Q217 263 217 254Q217 251 211 243Q195 226 187 203.50Q179 181 179 160Q179 149 184 135Q189 121 201 108Q213 95 232.50 86Q252 77 282 77Q314 77 343.50 88.50Q373 100 395.50 120.50Q418 141 431.50 170Q445 199 445 235Q445 268 430 292.50Q415 317 390.50 333.50Q366 350 335.50 358.50Q305 367 274 367Q218 367 176.50 348.50Q135 330 106.50 300Q78 270 64 231Q50 192 50 152Q50 114 66 81Q82 48 112.50 23Q143-2 187.50-16Q232-30 290-30Q412-30 485 34.50Q558 99 599 225L518 225Q502 225 502 237Q502 243 506 252Q510 261 524 261L612 261L626 308Q639 351 647 399.50Q655 448 655 496Q655 527 644.50 550.50Q634 574 618 590Q602 606 583 614.50Q564 623 548 624Q558 602 558 568Q558 532 548 498Q538 464 520 437.50Q502 411 476.50 395Q451 379 421 379Q398 379 383 400.50Q368 422 368 452Q368 490 384 524Q400 558 423.50 583.50Q447 609 474 624Q501 639 524 639Q508 661 481 675.50Q454 690 409 690Q360 690 316 672Q272 654 235.50 623.50Q199 593 171 553Q143 513 126 470Q123 463 120.50 458Q118 453 116 453Q109 453 109 462Q109 471 117.50 492.50Q126 514 143 541Q160 568 185.50 597.50Q211 627 245 651Q279 675 321.50 690.50Q364 706 415 706Q444 706 465.50 699.50Q487 693 502.50 683.50Q518 674 528 662.50Q538 651 543 641Q568 641 591.50 630Q615 619 633 600.50Q651 582 662 556.50Q673 531 673 502Q673 464 666 416.50Q659 369 642 303L631 261L770 261L849 554Q861 597 871.50 626.50Q882 656 895.50 674.50Q909 693 927 701Q945 709 970 709Q1008 709 1024 688Q1040 667 1040 640M538 590Q538 596 537 605.50Q536 615 532 626Q498 626 470.50 606Q443 586 424 558Q405 530 395 499.50Q385 469 385 448Q385 426 395 410.50Q405 395 416 395Q436 395 457.50 416Q479 437 497 467.50Q515 498 526.50 531.50Q538 565 538 590Z"  horiz-adv-x="894" vert-adv-y="1000"  />

      
      </font>
</defs>
</svg>
